<svg width="118" height="3524" viewBox="0 0 118 3524" fill="none" xmlns="http://www.w3.org/2000/svg">
<path d="M4.41779 0.132812C4.41779 80.0317 113.345 76.7026 113.345 207.371" stroke="black" stroke-opacity="0.1" stroke-width="8" stroke-dasharray="20 20"/>
<path d="M4.41779 414.609C4.41779 494.508 113.345 491.179 113.345 621.847" stroke="black" stroke-opacity="0.1" stroke-width="8" stroke-dasharray="20 20"/>
<path d="M4.41779 829.086C4.41779 908.985 113.345 905.656 113.345 1036.32" stroke="black" stroke-opacity="0.1" stroke-width="8" stroke-dasharray="20 20"/>
<path d="M4.41779 1243.56C4.41779 1323.46 113.345 1320.13 113.345 1450.8" stroke="black" stroke-opacity="0.1" stroke-width="8" stroke-dasharray="20 20"/>
<path d="M4.41779 1658.04C4.41779 1737.94 113.345 1734.61 113.345 1865.28" stroke="black" stroke-opacity="0.1" stroke-width="8" stroke-dasharray="20 20"/>
<path d="M4.41779 2072.52C4.41779 2152.41 113.345 2149.09 113.345 2279.75" stroke="black" stroke-opacity="0.1" stroke-width="8" stroke-dasharray="20 20"/>
<path d="M4.41779 2486.99C4.41779 2566.89 113.345 2563.56 113.345 2694.23" stroke="black" stroke-opacity="0.1" stroke-width="8" stroke-dasharray="20 20"/>
<path d="M4.41779 2901.47C4.41779 2981.37 113.345 2978.04 113.345 3108.71" stroke="black" stroke-opacity="0.1" stroke-width="8" stroke-dasharray="20 20"/>
<path d="M4.41779 3315.95C4.41779 3395.84 113.345 3392.52 113.345 3523.18" stroke="black" stroke-opacity="0.1" stroke-width="8" stroke-dasharray="20 20"/>
<path d="M113.345 207.371C113.345 287.27 4.41779 283.941 4.41779 414.609" stroke="black" stroke-opacity="0.1" stroke-width="8" stroke-dasharray="20 20"/>
<path d="M113.345 621.848C113.345 701.747 4.41779 698.417 4.41779 829.085" stroke="black" stroke-opacity="0.1" stroke-width="8" stroke-dasharray="20 20"/>
<path d="M113.345 1036.32C113.345 1116.22 4.41779 1112.89 4.41779 1243.56" stroke="black" stroke-opacity="0.1" stroke-width="8" stroke-dasharray="20 20"/>
<path d="M113.345 1450.8C113.345 1530.7 4.41779 1527.37 4.41779 1658.04" stroke="black" stroke-opacity="0.1" stroke-width="8" stroke-dasharray="20 20"/>
<path d="M113.345 1865.28C113.345 1945.18 4.41779 1941.85 4.41779 2072.52" stroke="black" stroke-opacity="0.1" stroke-width="8" stroke-dasharray="20 20"/>
<path d="M113.345 2279.75C113.345 2359.65 4.41779 2356.32 4.41779 2486.99" stroke="black" stroke-opacity="0.1" stroke-width="8" stroke-dasharray="20 20"/>
<path d="M113.345 2694.23C113.345 2774.13 4.41779 2770.8 4.41779 2901.47" stroke="black" stroke-opacity="0.1" stroke-width="8" stroke-dasharray="20 20"/>
<path d="M113.345 3108.71C113.345 3188.61 4.41779 3185.28 4.41779 3315.94" stroke="black" stroke-opacity="0.1" stroke-width="8" stroke-dasharray="20 20"/>
</svg>
