<svg width="79" height="3467" viewBox="0 0 79 3467" fill="none" xmlns="http://www.w3.org/2000/svg">
<path d="M4.39911 0.738281C4.39911 79.3362 74.2824 76.0614 74.2824 204.602" stroke="black" stroke-opacity="0.1" stroke-width="8" stroke-dasharray="20 20"/>
<path d="M4.39911 408.465C4.39911 487.063 74.2824 483.788 74.2824 612.328" stroke="black" stroke-opacity="0.1" stroke-width="8" stroke-dasharray="20 20"/>
<path d="M4.39911 816.191C4.39911 894.789 74.2824 891.514 74.2824 1020.05" stroke="black" stroke-opacity="0.1" stroke-width="8" stroke-dasharray="20 20"/>
<path d="M4.39911 1223.92C4.39911 1302.52 74.2824 1299.24 74.2824 1427.78" stroke="black" stroke-opacity="0.1" stroke-width="8" stroke-dasharray="20 20"/>
<path d="M4.39911 1631.64C4.39911 1710.24 74.2824 1706.97 74.2824 1835.51" stroke="black" stroke-opacity="0.1" stroke-width="8" stroke-dasharray="20 20"/>
<path d="M4.39911 2039.37C4.39911 2117.97 74.2824 2114.69 74.2824 2243.23" stroke="black" stroke-opacity="0.1" stroke-width="8" stroke-dasharray="20 20"/>
<path d="M4.39911 2447.1C4.39911 2525.7 74.2824 2522.42 74.2824 2650.96" stroke="black" stroke-opacity="0.1" stroke-width="8" stroke-dasharray="20 20"/>
<path d="M4.39911 2854.82C4.39911 2933.42 74.2824 2930.15 74.2824 3058.69" stroke="black" stroke-opacity="0.1" stroke-width="8" stroke-dasharray="20 20"/>
<path d="M4.39911 3262.55C4.39911 3341.15 74.2824 3337.87 74.2824 3466.41" stroke="black" stroke-opacity="0.1" stroke-width="8" stroke-dasharray="20 20"/>
<path d="M74.2829 204.602C74.2829 283.2 4.39958 279.925 4.39958 408.465" stroke="black" stroke-opacity="0.1" stroke-width="8" stroke-dasharray="20 20"/>
<path d="M74.2829 612.328C74.2829 690.926 4.39958 687.651 4.39958 816.192" stroke="black" stroke-opacity="0.1" stroke-width="8" stroke-dasharray="20 20"/>
<path d="M74.2829 1020.05C74.2829 1098.65 4.39958 1095.38 4.39958 1223.92" stroke="black" stroke-opacity="0.1" stroke-width="8" stroke-dasharray="20 20"/>
<path d="M74.2829 1427.78C74.2829 1506.38 4.39958 1503.1 4.39958 1631.64" stroke="black" stroke-opacity="0.1" stroke-width="8" stroke-dasharray="20 20"/>
<path d="M74.2829 1835.51C74.2829 1914.11 4.39958 1910.83 4.39958 2039.37" stroke="black" stroke-opacity="0.1" stroke-width="8" stroke-dasharray="20 20"/>
<path d="M74.2829 2243.23C74.2829 2321.83 4.39958 2318.56 4.39958 2447.1" stroke="black" stroke-opacity="0.1" stroke-width="8" stroke-dasharray="20 20"/>
<path d="M74.2829 2650.96C74.2829 2729.56 4.39958 2726.28 4.39958 2854.82" stroke="black" stroke-opacity="0.1" stroke-width="8" stroke-dasharray="20 20"/>
<path d="M74.2829 3058.69C74.2829 3137.29 4.39958 3134.01 4.39958 3262.55" stroke="black" stroke-opacity="0.1" stroke-width="8" stroke-dasharray="20 20"/>
</svg>
