<svg width="230" height="6810" viewBox="0 0 230 6810" fill="none" xmlns="http://www.w3.org/2000/svg">
<path d="M6 0C6 169.325 170.125 127.758 225 397.908C225 540.721 4 606.904 4 775.842C4 944.779 225 1005.74 225 1176.42C225 1347.1 4 1409.79 4 1576.99C4 1744.19 170 1743.9 225 2010.66C225 2153.47 4 2219.65 4 2388.59C4 2557.53 225 2618.48 225 2789.16C225 2959.84 4 3022.54 4 3189.74C4 3356.94 225 3349.97 225 3623.4C225 3766.22 4 3832.4 4 4001.34C4 4170.28 225 4231.23 225 4401.91C225 4572.59 4 4635.29 4 4802.49C4 4969.68 225 4962.72 225 5236.15C225 5378.97 4 5445.15 4 5614.09C4 5783.02 225 5843.98 225 6014.66C225 6185.34 4 6248.04 4 6415.24C4 6582.43 225.5 6536.56 225.5 6810" stroke="black" stroke-opacity="0.1" stroke-width="8" stroke-dasharray="20 20"/>
</svg>
