<svg width="42" height="40" viewBox="0 0 42 40" fill="none" xmlns="http://www.w3.org/2000/svg">
<path d="M36.4026 30.9375H8.85571V6.5625C8.85571 6.39063 8.71157 6.25 8.5354 6.25H6.29321C6.11704 6.25 5.9729 6.39063 5.9729 6.5625V33.4375C5.9729 33.6094 6.11704 33.75 6.29321 33.75H36.4026C36.5788 33.75 36.7229 33.6094 36.7229 33.4375V31.25C36.7229 31.0781 36.5788 30.9375 36.4026 30.9375ZM12.3792 27.8125H14.6213C14.7975 27.8125 14.9417 27.6719 14.9417 27.5V21.875C14.9417 21.7031 14.7975 21.5625 14.6213 21.5625H12.3792C12.203 21.5625 12.0588 21.7031 12.0588 21.875V27.5C12.0588 27.6719 12.203 27.8125 12.3792 27.8125ZM18.4651 27.8125H20.7073C20.8834 27.8125 21.0276 27.6719 21.0276 27.5V15C21.0276 14.8281 20.8834 14.6875 20.7073 14.6875H18.4651C18.2889 14.6875 18.1448 14.8281 18.1448 15V27.5C18.1448 27.6719 18.2889 27.8125 18.4651 27.8125ZM24.551 27.8125H26.7932C26.9694 27.8125 27.1135 27.6719 27.1135 27.5V18.0469C27.1135 17.875 26.9694 17.7344 26.7932 17.7344H24.551C24.3749 17.7344 24.2307 17.875 24.2307 18.0469V27.5C24.2307 27.6719 24.3749 27.8125 24.551 27.8125ZM30.637 27.8125H32.8792C33.0553 27.8125 33.1995 27.6719 33.1995 27.5V11.875C33.1995 11.7031 33.0553 11.5625 32.8792 11.5625H30.637C30.4608 11.5625 30.3167 11.7031 30.3167 11.875V27.5C30.3167 27.6719 30.4608 27.8125 30.637 27.8125Z" fill="#CFDB00"/>
</svg>
