<svg width="86" height="85" viewBox="0 0 86 85" fill="none" xmlns="http://www.w3.org/2000/svg">
<circle cx="43.3315" cy="42.5" r="42.5" fill="white"/>
<path d="M55.7597 33.9156L46.7909 24.9469C46.5347 24.6906 46.2784 24.5625 45.894 24.5625H33.0815C31.6722 24.5625 30.519 25.7156 30.519 27.125V57.875C30.519 59.2844 31.6722 60.4375 33.0815 60.4375H53.5815C54.9909 60.4375 56.144 59.2844 56.144 57.875V34.8125C56.144 34.4281 56.0159 34.1719 55.7597 33.9156ZM45.894 27.6375L53.069 34.8125H45.894V27.6375ZM53.5815 57.875H33.0815V27.125H43.3315V34.8125C43.3315 36.2219 44.4847 37.375 45.894 37.375H53.5815V57.875Z" fill="#CFDB00"/>
<path d="M35.644 50.1875H51.019V52.75H35.644V50.1875Z" fill="#CFDB00"/>
<path d="M35.644 42.5H51.019V45.0625H35.644V42.5Z" fill="#CFDB00"/>
</svg>
