<svg width="86" height="86" viewBox="0 0 86 86" fill="none" xmlns="http://www.w3.org/2000/svg">
<circle cx="43.3479" cy="42.5469" r="42.5" fill="white"/>
<path d="M60.4312 27.1719H26.2645V37.4219H27.9729V56.2135C27.9729 57.1197 28.3328 57.9887 28.9736 58.6295C29.6143 59.2702 30.4834 59.6302 31.3895 59.6302H55.3062C56.2124 59.6302 57.0814 59.2702 57.7221 58.6295C58.3629 57.9887 58.7229 57.1197 58.7229 56.2135V37.4219H60.4312V27.1719ZM29.6812 30.5885H57.0145V34.0052H29.6812V30.5885ZM55.3062 56.2135H31.3895V37.4219H55.3062V56.2135ZM38.2229 40.8385H48.4729C48.4729 41.7447 48.1129 42.6137 47.4721 43.2545C46.8314 43.8952 45.9624 44.2552 45.0562 44.2552H41.6395C40.7334 44.2552 39.8643 43.8952 39.2236 43.2545C38.5828 42.6137 38.2229 41.7447 38.2229 40.8385Z" fill="#CFDB00"/>
</svg>
