<svg width="86" height="85" viewBox="0 0 86 85" fill="none" xmlns="http://www.w3.org/2000/svg">
<circle cx="43.3479" cy="42.5" r="42.5" fill="white"/>
<path d="M58.4026 52.9375H30.8557V28.5625C30.8557 28.3906 30.7116 28.25 30.5354 28.25H28.2932C28.117 28.25 27.9729 28.3906 27.9729 28.5625V55.4375C27.9729 55.6094 28.117 55.75 28.2932 55.75H58.4026C58.5788 55.75 58.7229 55.6094 58.7229 55.4375V53.25C58.7229 53.0781 58.5788 52.9375 58.4026 52.9375ZM34.3792 49.8125H36.6213C36.7975 49.8125 36.9417 49.6719 36.9417 49.5V43.875C36.9417 43.7031 36.7975 43.5625 36.6213 43.5625H34.3792C34.203 43.5625 34.0588 43.7031 34.0588 43.875V49.5C34.0588 49.6719 34.203 49.8125 34.3792 49.8125ZM40.4651 49.8125H42.7073C42.8834 49.8125 43.0276 49.6719 43.0276 49.5V37C43.0276 36.8281 42.8834 36.6875 42.7073 36.6875H40.4651C40.2889 36.6875 40.1448 36.8281 40.1448 37V49.5C40.1448 49.6719 40.2889 49.8125 40.4651 49.8125ZM46.551 49.8125H48.7932C48.9694 49.8125 49.1135 49.6719 49.1135 49.5V40.0469C49.1135 39.875 48.9694 39.7344 48.7932 39.7344H46.551C46.3749 39.7344 46.2307 39.875 46.2307 40.0469V49.5C46.2307 49.6719 46.3749 49.8125 46.551 49.8125ZM52.637 49.8125H54.8792C55.0553 49.8125 55.1995 49.6719 55.1995 49.5V33.875C55.1995 33.7031 55.0553 33.5625 54.8792 33.5625H52.637C52.4608 33.5625 52.3167 33.7031 52.3167 33.875V49.5C52.3167 49.6719 52.4608 49.8125 52.637 49.8125Z" fill="#CFDB00"/>
</svg>
