<svg width="85" height="86" viewBox="0 0 85 86" fill="none" xmlns="http://www.w3.org/2000/svg">
<circle cx="42.5" cy="42.5469" r="42.5" fill="white"/>
<path d="M27.125 29.7344V32.2969H55.3125V52.7969H37.375V55.3594H60.4375V52.7969H57.875V29.7344H27.125ZM32.2526 33.5781C30.8945 33.5828 29.5935 34.1242 28.633 35.0843C27.6724 36.0443 27.1304 37.3451 27.125 38.7031C27.125 41.5206 29.4364 43.8281 32.2526 43.8281C33.6099 43.8227 34.9101 43.281 35.8696 42.3209C36.8292 41.3609 37.3703 40.0605 37.375 38.7031C37.375 35.8882 35.0662 33.5781 32.2526 33.5781ZM39.9375 34.8594V37.4219H46.3438V34.8594H39.9375ZM48.9062 34.8594V37.4219H52.75V34.8594H48.9062ZM32.2526 36.1406C33.6799 36.1406 34.8125 37.272 34.8125 38.7031C34.8125 40.1381 33.6812 41.2656 32.2526 41.2656C30.8176 41.2656 29.6875 40.1381 29.6875 38.7031C29.6875 37.272 30.8188 36.1406 32.2526 36.1406ZM39.9375 39.9844V42.5469H52.75V39.9844H39.9375ZM27.125 45.1094V55.3594H29.6875V47.6719H33.5312V55.3594H36.0938V48.5149L38.7382 49.9141C39.4878 50.3113 40.3885 50.31 41.1368 49.9141V49.9166L45.6596 47.5245L44.4642 45.2567L39.9401 47.6488L35.9733 45.5552C35.4197 45.2628 34.8031 45.1097 34.177 45.1094H27.125Z" fill="#CFDB00"/>
</svg>
