<svg width="41" height="42" viewBox="0 0 41 42" fill="none" xmlns="http://www.w3.org/2000/svg">
<path d="M5.125 7.73438V10.2969H33.3125V30.7969H15.375V33.3594H38.4375V30.7969H35.875V7.73438H5.125ZM10.2526 11.5781C8.89455 11.5828 7.59346 12.1242 6.63295 13.0843C5.67244 14.0443 5.1304 15.3451 5.125 16.7031C5.125 19.5206 7.43637 21.8281 10.2526 21.8281C11.6099 21.8227 12.9101 21.281 13.8696 20.3209C14.8292 19.3609 15.3703 18.0605 15.375 16.7031C15.375 13.8882 13.0662 11.5781 10.2526 11.5781ZM17.9375 12.8594V15.4219H24.3438V12.8594H17.9375ZM26.9062 12.8594V15.4219H30.75V12.8594H26.9062ZM10.2526 14.1406C11.6799 14.1406 12.8125 15.272 12.8125 16.7031C12.8125 18.1381 11.6812 19.2656 10.2526 19.2656C8.81756 19.2656 7.6875 18.1381 7.6875 16.7031C7.6875 15.272 8.81884 14.1406 10.2526 14.1406ZM17.9375 17.9844V20.5469H30.75V17.9844H17.9375ZM5.125 23.1094V33.3594H7.6875V25.6719H11.5312V33.3594H14.0938V26.5149L16.7382 27.9141C17.4878 28.3113 18.3885 28.31 19.1368 27.9141V27.9166L23.6596 25.5245L22.4642 23.2567L17.9401 25.6488L13.9733 23.5552C13.4197 23.2628 12.8031 23.1097 12.177 23.1094H5.125Z" fill="#CFDB00"/>
</svg>
