<svg width="42" height="41" viewBox="0 0 42 41" fill="none" xmlns="http://www.w3.org/2000/svg">
<path d="M33.7597 11.9156L24.7909 2.94687C24.5347 2.69062 24.2784 2.5625 23.894 2.5625H11.0815C9.67217 2.5625 8.51904 3.71562 8.51904 5.125V35.875C8.51904 37.2844 9.67217 38.4375 11.0815 38.4375H31.5815C32.9909 38.4375 34.144 37.2844 34.144 35.875V12.8125C34.144 12.4281 34.0159 12.1719 33.7597 11.9156ZM23.894 5.6375L31.069 12.8125H23.894V5.6375ZM31.5815 35.875H11.0815V5.125H21.3315V12.8125C21.3315 14.2219 22.4847 15.375 23.894 15.375H31.5815V35.875Z" fill="#CFDB00"/>
<path d="M13.644 28.1875H29.019V30.75H13.644V28.1875Z" fill="#CFDB00"/>
<path d="M13.644 20.5H29.019V23.0625H13.644V20.5Z" fill="#CFDB00"/>
</svg>
