<svg width="42" height="42" viewBox="0 0 42 42" fill="none" xmlns="http://www.w3.org/2000/svg">
<path d="M38.4312 5.17188H4.26453V15.4219H5.97286V34.2135C5.97286 35.1197 6.33283 35.9887 6.97358 36.6295C7.61433 37.2702 8.48337 37.6302 9.38953 37.6302H33.3062C34.2124 37.6302 35.0814 37.2702 35.7221 36.6295C36.3629 35.9887 36.7229 35.1197 36.7229 34.2135V15.4219H38.4312V5.17188ZM7.68119 8.58854H35.0145V12.0052H7.68119V8.58854ZM33.3062 34.2135H9.38953V15.4219H33.3062V34.2135ZM16.2229 18.8385H26.4729C26.4729 19.7447 26.1129 20.6137 25.4721 21.2545C24.8314 21.8952 23.9624 22.2552 23.0562 22.2552H19.6395C18.7334 22.2552 17.8643 21.8952 17.2236 21.2545C16.5828 20.6137 16.2229 19.7447 16.2229 18.8385Z" fill="#CFDB00"/>
</svg>
