<svg width="41" height="41" viewBox="0 0 41 41" fill="none" xmlns="http://www.w3.org/2000/svg">
<path d="M32.3882 12.3936L23.6382 3.64355C23.3882 3.39355 23.1382 3.26855 22.7632 3.26855H10.2632C8.88818 3.26855 7.76318 4.39355 7.76318 5.76855V35.7686C7.76318 37.1436 8.88818 38.2686 10.2632 38.2686H30.2632C31.6382 38.2686 32.7632 37.1436 32.7632 35.7686V13.2686C32.7632 12.8936 32.6382 12.6436 32.3882 12.3936ZM22.7632 6.26855L29.7632 13.2686H22.7632V6.26855ZM30.2632 35.7686H10.2632V5.76855H20.2632V13.2686C20.2632 14.6436 21.3882 15.7686 22.7632 15.7686H30.2632V35.7686Z" fill="#CFDB00"/>
<path d="M12.7632 28.2686H27.7632V30.7686H12.7632V28.2686Z" fill="#CFDB00"/>
<path d="M12.7632 20.7686H27.7632V23.2686H12.7632V20.7686Z" fill="#CFDB00"/>
</svg>
