<svg xmlns="http://www.w3.org/2000/svg" viewBox="0 0 298.74 88.31"><defs><style>.cls-1{fill:#26358c;}.cls-2{fill:#ccd600;}</style></defs><g id="Layer_2" data-name="Layer 2"><g id="Layer_1-2" data-name="Layer 1"><path class="cls-1" d="M34.31.41H52a3.32,3.32,0,0,1,2.9,2L85.51,86a1.41,1.41,0,0,1-1.43,2H66.69a3.22,3.22,0,0,1-2.85-2l-6-18H26.88l-6,18A3.18,3.18,0,0,1,18,88H1.54A1.39,1.39,0,0,1,.13,86L31.39,2.43a3.35,3.35,0,0,1,2.92-2M53.08,52.55,42.42,19.45,31.49,52.55Z"/><path class="cls-1" d="M163.21,0h31a43.8,43.8,0,0,1,13.94,1.92A26.59,26.59,0,0,1,217.42,7a18.71,18.71,0,0,1,5.18,7.34A24.35,24.35,0,0,1,224.19,23a17.32,17.32,0,0,1-1.53,7.48,23.29,23.29,0,0,1-3.58,5.57,17.85,17.85,0,0,1-4.38,3.64,16.84,16.84,0,0,1-3.91,1.72,29.05,29.05,0,0,1,5.5,1.91,21.83,21.83,0,0,1,10.62,10.47A20.61,20.61,0,0,1,228.83,63a25.32,25.32,0,0,1-2.45,11.66,21,21,0,0,1-6.9,7.81,30.46,30.46,0,0,1-10.88,4.43,68.25,68.25,0,0,1-14.4,1.39h-31A2.18,2.18,0,0,1,161,86.14v-84A2.18,2.18,0,0,1,163.21,0m29.13,35.35a19,19,0,0,0,4.45-.53,11.58,11.58,0,0,0,3.85-1.66,8.77,8.77,0,0,0,2.72-3.05,9.66,9.66,0,0,0,1.06-4.7,10,10,0,0,0-1.06-4.83,8.61,8.61,0,0,0-2.79-3A11.67,11.67,0,0,0,196.65,16a20.58,20.58,0,0,0-4.31-.46h-11.8V35.36Zm1.2,37.6a39.06,39.06,0,0,0,4.77-.33,14.23,14.23,0,0,0,4.91-1.53A10.34,10.34,0,0,0,207,67.66a11,11,0,0,0,1.53-6.23,9.89,9.89,0,0,0-5.17-9.32,15.57,15.57,0,0,0-4.92-1.73,29.42,29.42,0,0,0-4.9-.46h-13V73Z"/><path class="cls-2" d="M125.94,27.32A16.68,16.68,0,1,0,142.65,44,16.71,16.71,0,0,0,125.94,27.32Z"/><path class="cls-1" d="M142.55,63.54a24.89,24.89,0,0,1-17.2,6.94C111.24,70.48,99.8,58.63,99.8,44s11.44-26.48,25.55-26.48A24.9,24.9,0,0,1,142.09,24,2.14,2.14,0,0,0,145,24l9-9a2,2,0,0,0,0-2.91A43.72,43.72,0,0,0,80.2,44a43.7,43.7,0,0,0,74.32,31.48,2.07,2.07,0,0,0,0-2.93l-9.06-9a2.06,2.06,0,0,0-2.89,0"/><path class="cls-1" d="M267.93,88.31a41.33,41.33,0,0,1-20.78-5.44,36.1,36.1,0,0,1-10.94-9.53l-.64-.87a2.39,2.39,0,0,1,.3-3.21l9.59-8.72a2.38,2.38,0,0,1,1.63-.63h.13a2.43,2.43,0,0,1,1.68.81l.8.92c5.43,6.16,11.48,9.27,18,9.27,4.45,0,7.85-1,10.08-3a7.81,7.81,0,0,0,2.49-6.21,7.57,7.57,0,0,0-3.89-6.89c-2.47-1.6-6.55-3-12.11-4.24-8.09-1.67-14.36-4.82-18.65-9.36a22.48,22.48,0,0,1-6.41-16.33A22.42,22.42,0,0,1,248,6.5C253.23,2.3,260.18.17,268.63.17c11.27,0,20.31,4.06,26.86,12.06l.73.87a2.42,2.42,0,0,1-.24,3.3l-9.14,8.41a2.42,2.42,0,0,1-1.63.64h-.13a2.42,2.42,0,0,1-1.68-.8l-.81-.91a18.51,18.51,0,0,0-14.43-6.53c-3.84,0-6.76,1-8.66,2.87a6.14,6.14,0,0,0-1.83,4.48,5.69,5.69,0,0,0,2.49,5.05c1.55,1.12,5.07,2.85,13,4.71s14,4.91,18.22,8.88c4.89,4.79,7.36,11.1,7.36,18.77,0,8.26-3.46,15-10.27,20a33.7,33.7,0,0,1-20.54,6.36"/></g></g></svg>