<svg width="602" height="176" viewBox="0 0 602 176" fill="none" xmlns="http://www.w3.org/2000/svg" opacity="0.05">
<path d="M69.6878 1.41016H105.335C106.59 1.46509 107.803 1.86589 108.836 2.56674C109.869 3.26759 110.681 4.24023 111.179 5.37347L172.862 171.02C173.077 171.469 173.165 171.966 173.119 172.46C173.073 172.954 172.894 173.427 172.601 173.831C172.308 174.234 171.91 174.554 171.45 174.756C170.989 174.959 170.482 175.037 169.981 174.983H134.938C133.695 174.934 132.493 174.534 131.474 173.831C130.456 173.128 129.665 172.153 129.195 171.02L117.104 135.35H54.7154L42.6246 171.02C42.1587 172.167 41.3603 173.155 40.3284 173.859C39.2966 174.564 38.0769 174.955 36.821 174.983H3.65195C3.15002 175.043 2.64112 174.967 2.17922 174.765C1.71731 174.563 1.31962 174.242 1.02833 173.836C0.737036 173.429 0.562995 172.953 0.524665 172.457C0.486335 171.962 0.585145 171.465 0.810615 171.02L63.8036 5.4131C64.3103 4.27814 65.1301 3.30536 66.17 2.60491C67.2099 1.90446 68.4285 1.50432 69.6878 1.44979V1.41016ZM107.512 104.734L86.0305 39.1409L64.0051 104.734H107.512Z" fill="#26358C"/>
<path d="M329.438 0.59628H391.907C401.418 0.367445 410.904 1.65228 419.998 4.40106C426.847 6.49344 433.199 9.91667 438.678 14.4679C443.307 18.4107 446.89 23.4031 449.116 29.0132C451.236 34.4946 452.322 40.31 452.32 46.1744C452.427 51.2793 451.373 56.3432 449.237 60.9971C447.379 64.9955 444.95 68.7123 442.023 72.035C439.493 74.8884 436.513 77.3238 433.197 79.2482C430.728 80.7086 428.081 81.854 425.318 82.6566C429.132 83.5501 432.845 84.8181 436.401 86.4416C445.79 90.6727 453.366 98.0175 457.802 107.19C460.505 112.899 461.829 119.145 461.671 125.441C461.917 133.419 460.225 141.34 456.734 148.547C453.495 154.773 448.713 160.095 442.829 164.023C436.169 168.321 428.723 171.303 420.905 172.802C411.359 174.729 401.631 175.652 391.887 175.557H329.418C328.256 175.567 327.137 175.125 326.307 174.326C325.476 173.528 325 172.438 324.984 171.296V4.83702C325.006 3.69471 325.486 2.60718 326.321 1.81241C327.155 1.01764 328.276 0.580368 329.438 0.59628ZM388.139 70.6478C391.159 70.6468 394.169 70.2943 397.106 69.5975C399.874 68.9744 402.503 67.8596 404.864 66.308C407.15 64.7459 409.028 62.675 410.345 60.2639C411.846 57.3866 412.581 54.1823 412.481 50.9501C412.595 47.6341 411.861 44.3431 410.345 41.3787C408.985 38.9811 407.056 36.9417 404.723 35.4338C402.306 33.926 399.629 32.8649 396.824 32.3028C393.969 31.6991 391.058 31.3936 388.139 31.3912H364.36V70.6676L388.139 70.6478ZM390.557 145.158C393.771 145.133 396.981 144.915 400.169 144.504C403.627 144.093 406.98 143.065 410.063 141.472C413.14 139.868 415.759 137.531 417.68 134.675C419.933 130.953 421.006 126.654 420.764 122.329C421.002 118.594 420.147 114.87 418.301 111.597C416.454 108.324 413.694 105.639 410.345 103.86C407.26 102.178 403.908 101.019 400.431 100.432C397.171 99.8576 393.868 99.5526 390.557 99.5205H364.36V145.257L390.557 145.158Z" fill="#26358C"/>
<path d="M254.334 54.7344C247.689 54.7461 241.196 56.6947 235.677 60.3339C230.157 63.973 225.858 69.1394 223.324 75.1803C220.789 81.2212 220.132 87.8653 221.435 94.2733C222.739 100.681 225.945 106.565 230.648 111.182C235.352 115.799 241.341 118.941 247.859 120.212C254.378 121.482 261.133 120.824 267.271 118.321C273.41 115.817 278.656 111.58 282.346 106.146C286.037 100.712 288.007 94.3233 288.007 87.7884C287.991 79.0165 284.436 70.6092 278.123 64.4121C271.81 58.2149 263.254 54.7344 254.334 54.7344Z" fill="#CFDB00"/>
<path d="M287.806 126.511C278.485 135.315 266.069 140.242 253.145 140.264C224.712 140.264 201.659 116.781 201.659 87.7895C201.659 58.7979 224.712 35.3153 253.145 35.3153C265.622 35.3224 277.649 39.9006 286.879 48.1564C287.676 48.8835 288.723 49.2874 289.811 49.2874C290.898 49.2874 291.945 48.8835 292.743 48.1564L310.879 30.3215C311.278 29.951 311.597 29.5042 311.814 29.0083C312.032 28.5125 312.144 27.9782 312.144 27.4382C312.144 26.8982 312.032 26.3639 311.814 25.8681C311.597 25.3723 311.278 24.9254 310.879 24.5549C298.356 12.8793 282.622 5.07732 265.631 2.1173C248.639 -0.842724 231.137 1.16958 215.298 7.90443C199.459 14.6393 185.979 25.8001 176.533 40.0016C167.087 54.2031 162.09 70.82 162.162 87.7895C162.042 104.901 167.079 121.665 176.639 135.963C186.199 150.262 199.852 161.455 215.875 168.129C231.898 174.803 249.573 176.659 266.668 173.464C283.763 170.268 299.512 162.163 311.927 150.172C312.315 149.791 312.623 149.339 312.833 148.84C313.043 148.342 313.151 147.808 313.151 147.269C313.151 146.73 313.043 146.196 312.833 145.697C312.623 145.199 312.315 144.747 311.927 144.366L293.67 126.531C292.893 125.779 291.847 125.358 290.758 125.358C289.668 125.358 288.623 125.779 287.846 126.531" fill="#26358C"/>
<path d="M540.462 175.597C525.782 175.695 511.336 171.976 498.588 164.817C490.016 160.053 482.516 153.629 476.543 145.931L475.253 144.207C474.528 143.264 474.188 142.088 474.3 140.911C474.412 139.734 474.968 138.641 475.857 137.846L495.183 120.566C496.077 119.755 497.251 119.309 498.467 119.318H498.729C499.373 119.353 500.004 119.513 500.585 119.788C501.166 120.064 501.686 120.449 502.115 120.923L503.727 122.746C514.669 134.953 526.86 141.116 539.999 141.116C548.966 141.116 555.818 139.134 560.312 135.171C562.023 133.613 563.361 131.701 564.228 129.573C565.096 127.445 565.472 125.154 565.329 122.865C565.43 120.099 564.752 117.36 563.368 114.951C561.985 112.541 559.95 110.555 557.49 109.211C552.513 106.041 544.291 103.266 533.087 100.809C516.785 97.4997 504.15 91.2575 495.505 82.2607C491.256 77.9936 487.923 72.93 485.704 67.3708C483.485 61.8115 482.425 55.8703 482.588 49.9003C482.405 42.885 483.915 35.9269 486.994 29.596C490.073 23.2651 494.633 17.7415 500.301 13.4775C510.84 5.15452 524.845 0.933594 541.873 0.933594C564.584 0.933594 582.8 8.97911 595.999 24.8324L597.471 26.5564C598.249 27.5031 598.633 28.7057 598.543 29.9201C598.453 31.1345 597.897 32.2699 596.987 33.0959L578.569 49.7616C577.673 50.5727 576.501 51.0251 575.284 51.0299H575.022C574.379 50.9983 573.749 50.842 573.168 50.57C572.587 50.2979 572.067 49.9154 571.637 49.4445L570.004 47.6412C566.433 43.503 561.972 40.1958 556.944 37.9581C551.915 35.7204 546.445 34.6079 540.926 34.701C533.188 34.701 527.304 36.6827 523.475 40.3884C522.281 41.5453 521.338 42.9288 520.704 44.4549C520.07 45.981 519.758 47.6179 519.787 49.2662C519.669 51.219 520.069 53.1684 520.949 54.923C521.829 56.6775 523.158 58.1768 524.805 59.2735C527.928 61.493 535.022 64.9213 551.002 68.6071C566.982 72.293 579.213 78.3371 587.717 86.2042C597.571 95.6964 602.549 108.201 602.549 123.4C602.549 139.768 595.576 153.125 581.853 163.033C569.826 171.566 555.289 175.992 540.462 175.636" fill="#26358C"/>
</svg>
