<svg width="24" height="25" viewBox="0 0 24 25" fill="none" xmlns="http://www.w3.org/2000/svg">
<g opacity="1">
<path d="M19.875 3.49902H4.125C2.953 3.49902 2 4.39602 2 5.49902V19.499C2 20.602 2.953 21.499 4.125 21.499H19.875C21.047 21.499 22 20.602 22 19.499V5.49902C22 4.39602 21.047 3.49902 19.875 3.49902ZM19.875 19.499H4.125C4.068 19.499 4.029 19.483 4.012 19.483C4.005 19.483 4.001 19.485 4 19.491L3.988 5.54502C3.995 5.53502 4.04 5.49902 4.125 5.49902H19.875C19.954 5.50002 19.997 5.52702 20 5.50702L20.012 19.453C20.005 19.463 19.96 19.499 19.875 19.499Z" fill="#131313"/>
<path d="M6 7.49902H12V13.499H6V7.49902ZM13 15.499H6V17.499H18V15.499H14H13ZM14 11.499H18V13.499H14V11.499ZM14 7.49902H18V9.49902H14V7.49902Z" fill="black"/>
</g>
</svg>
