<svg width="45" height="46" viewBox="0 0 45 46" fill="none" xmlns="http://www.w3.org/2000/svg">
<path d="M4.82153 11.5942C4.82153 9.99576 5.4565 8.46283 6.58674 7.33259C7.71698 6.20235 9.24992 5.56738 10.8483 5.56738H34.1519C35.7503 5.56738 37.2832 6.20235 38.4135 7.33259C39.5437 8.46283 40.1787 9.99576 40.1787 11.5942V34.8977C40.1787 36.4961 39.5437 38.0291 38.4135 39.1593C37.2832 40.2896 35.7503 40.9245 34.1519 40.9245H10.8483C9.24992 40.9245 7.71698 40.2896 6.58674 39.1593C5.4565 38.0291 4.82153 36.4961 4.82153 34.8977V11.5942ZM7.23225 24.0495V34.8977C7.23225 35.8568 7.61323 36.7765 8.29137 37.4547C8.96952 38.1328 9.88928 38.5138 10.8483 38.5138H25.7144V24.0495H7.23225ZM25.7144 21.6388V7.9781H10.8483C9.88928 7.9781 8.96952 8.35907 8.29137 9.03722C7.61323 9.71536 7.23225 10.6351 7.23225 11.5942V21.6388H25.7144ZM34.1519 38.5138C35.1109 38.5138 36.0307 38.1328 36.7088 37.4547C37.387 36.7765 37.768 35.8568 37.768 34.8977V29.6745H28.1251V38.5138H34.1519ZM37.768 27.2638V19.2281H28.1251V27.2638H37.768ZM28.1251 7.9781V16.8174H37.768V11.5942C37.768 10.6351 37.387 9.71536 36.7088 9.03722C36.0307 8.35907 35.1109 7.9781 34.1519 7.9781H28.1251Z" fill="#002395"/>
</svg>
