<svg width="21" height="21" viewBox="0 0 21 21" fill="none" xmlns="http://www.w3.org/2000/svg">
<path d="M13.9976 6.39453V5.45703C13.9976 5.37109 13.9272 5.30078 13.8413 5.30078H6.34131C6.25537 5.30078 6.18506 5.37109 6.18506 5.45703V6.39453C6.18506 6.48047 6.25537 6.55078 6.34131 6.55078H13.8413C13.9272 6.55078 13.9976 6.48047 13.9976 6.39453ZM6.34131 8.11328C6.25537 8.11328 6.18506 8.18359 6.18506 8.26953V9.20703C6.18506 9.29297 6.25537 9.36328 6.34131 9.36328H9.93506C10.021 9.36328 10.0913 9.29297 10.0913 9.20703V8.26953C10.0913 8.18359 10.021 8.11328 9.93506 8.11328H6.34131ZM9.15381 16.9414H4.62256V3.19141H15.5601V9.91016C15.5601 9.99609 15.6304 10.0664 15.7163 10.0664H16.8101C16.896 10.0664 16.9663 9.99609 16.9663 9.91016V2.41016C16.9663 2.06445 16.687 1.78516 16.3413 1.78516H3.84131C3.49561 1.78516 3.21631 2.06445 3.21631 2.41016V17.7227C3.21631 18.0684 3.49561 18.3477 3.84131 18.3477H9.15381C9.23975 18.3477 9.31006 18.2773 9.31006 18.1914V17.0977C9.31006 17.0117 9.23975 16.9414 9.15381 16.9414ZM17.8589 17.9473L16.0366 16.125C16.4722 15.5488 16.7319 14.8301 16.7319 14.0508C16.7319 12.1523 15.1929 10.6133 13.2944 10.6133C11.396 10.6133 9.85693 12.1523 9.85693 14.0508C9.85693 15.9492 11.396 17.4883 13.2944 17.4883C13.9937 17.4883 14.6421 17.2793 15.1851 16.9219L17.0347 18.7715C17.0659 18.8027 17.105 18.8164 17.144 18.8164C17.1831 18.8164 17.2241 18.8008 17.2534 18.7715L17.8589 18.166C17.8733 18.1517 17.8847 18.1346 17.8925 18.1159C17.9003 18.0971 17.9043 18.077 17.9043 18.0566C17.9043 18.0363 17.9003 18.0162 17.8925 17.9974C17.8847 17.9786 17.8733 17.9616 17.8589 17.9473ZM13.2944 16.2383C12.0854 16.2383 11.1069 15.2598 11.1069 14.0508C11.1069 12.8418 12.0854 11.8633 13.2944 11.8633C14.5034 11.8633 15.4819 12.8418 15.4819 14.0508C15.4819 15.2598 14.5034 16.2383 13.2944 16.2383Z" fill="black"/>
</svg>
