<svg width="17" height="17" viewBox="0 0 17 17" fill="none" xmlns="http://www.w3.org/2000/svg">
<path fill-rule="evenodd" clip-rule="evenodd" d="M13.8328 14.6701C13.9654 14.6701 14.0926 14.6174 14.1863 14.5237C14.2801 14.4299 14.3328 14.3027 14.3328 14.1701L14.3328 8.1701C14.3328 8.0375 14.2801 7.91032 14.1863 7.81655C14.0926 7.72278 13.9654 7.6701 13.8328 7.6701C13.7002 7.6701 13.573 7.72278 13.4792 7.81655C13.3855 7.91032 13.3328 8.0375 13.3328 8.1701L13.3328 12.9631L3.18678 2.8161C3.0929 2.72222 2.96556 2.66947 2.83278 2.66947C2.70001 2.66947 2.57267 2.72222 2.47878 2.8161C2.3849 2.90999 2.33215 3.03733 2.33215 3.1701C2.33215 3.30288 2.3849 3.43022 2.47878 3.52411L12.6258 13.6701L7.83278 13.6701C7.70018 13.6701 7.573 13.7228 7.47923 13.8166C7.38546 13.9103 7.33278 14.0375 7.33278 14.1701C7.33278 14.3027 7.38546 14.4299 7.47923 14.5237C7.573 14.6174 7.70018 14.6701 7.83278 14.6701L13.8328 14.6701Z" fill="#D9001A"/>
</svg>
