<svg width="46" height="46" viewBox="0 0 46 46" fill="none" xmlns="http://www.w3.org/2000/svg">
<path d="M37.4851 28.4341C36.5353 28.4379 35.6152 28.7652 34.8765 29.3622L31.8601 27.6227V25.3643C32.7984 25.0325 33.5891 24.3798 34.0927 23.5214C34.5962 22.663 34.7801 21.6542 34.6118 20.6734C34.4435 19.6925 33.9339 18.8027 33.173 18.1613C32.4122 17.5198 31.449 17.168 30.4538 17.168C29.4587 17.168 28.4955 17.5198 27.7346 18.1613C26.9738 18.8027 26.4641 19.6925 26.2958 20.6734C26.1276 21.6542 26.3114 22.663 26.815 23.5214C27.3185 24.3798 28.1093 25.0325 29.0476 25.3643V27.6227L26.0312 29.365C25.2929 28.767 24.3727 28.4387 23.4226 28.4341C22.5411 28.4281 21.6796 28.6966 20.9576 29.2023C20.2356 29.7079 19.6888 30.4258 19.3931 31.2562C19.0974 32.0866 19.0674 32.9884 19.3073 33.8366C19.5472 34.6849 20.0451 35.4374 20.7319 35.9899C21.4187 36.5425 22.2605 36.8676 23.1404 36.9202C24.0203 36.9728 24.8948 36.7503 25.6426 36.2835C26.3903 35.8168 26.9744 35.1289 27.3136 34.3153C27.6529 33.5017 27.7305 32.6027 27.5359 31.743L30.4538 30.0569L33.3718 31.7416C33.1837 32.5941 33.2649 33.484 33.6041 34.2884C33.9434 35.0928 34.524 35.772 35.2658 36.2323C36.0076 36.6926 36.874 36.9113 37.7454 36.8581C38.6168 36.805 39.4502 36.4826 40.1306 35.9355C40.8109 35.3885 41.3047 34.6437 41.5436 33.804C41.7826 32.9643 41.755 32.0712 41.4646 31.2479C41.1743 30.4245 40.6355 29.7117 39.9227 29.2076C39.2098 28.7036 38.3581 28.4333 37.4851 28.4341ZM23.4226 34.0591C23.1445 34.0591 22.8726 33.9766 22.6413 33.8221C22.4101 33.6676 22.2298 33.448 22.1234 33.191C22.0169 32.934 21.9891 32.6513 22.0434 32.3785C22.0976 32.1057 22.2316 31.8551 22.4282 31.6585C22.6249 31.4618 22.8755 31.3279 23.1482 31.2736C23.421 31.2194 23.7038 31.2472 23.9607 31.3536C24.2177 31.4601 24.4373 31.6403 24.5918 31.8716C24.7464 32.1028 24.8288 32.3747 24.8288 32.6528C24.8288 33.0258 24.6807 33.3835 24.417 33.6472C24.1532 33.9109 23.7955 34.0591 23.4226 34.0591ZM30.4538 19.9966C30.732 19.9966 31.0039 20.0791 31.2351 20.2336C31.4664 20.3881 31.6466 20.6077 31.753 20.8647C31.8595 21.1217 31.8873 21.4044 31.8331 21.6772C31.7788 21.95 31.6449 22.2005 31.4482 22.3972C31.2515 22.5939 31.001 22.7278 30.7282 22.7821C30.4554 22.8363 30.1726 22.8085 29.9157 22.7021C29.6587 22.5956 29.4391 22.4154 29.2846 22.1841C29.1301 21.9529 29.0476 21.681 29.0476 21.4028C29.0476 21.0299 29.1957 20.6722 29.4595 20.4085C29.7232 20.1448 30.0809 19.9966 30.4538 19.9966ZM37.4851 34.0591C37.207 34.0591 36.9351 33.9766 36.7038 33.8221C36.4726 33.6676 36.2923 33.448 36.1859 33.191C36.0794 32.934 36.0516 32.6513 36.1059 32.3785C36.1601 32.1057 36.2941 31.8551 36.4907 31.6585C36.6874 31.4618 36.938 31.3279 37.2107 31.2736C37.4835 31.2194 37.7663 31.2472 38.0232 31.3536C38.2802 31.4601 38.4998 31.6403 38.6543 31.8716C38.8089 32.1028 38.8913 32.3747 38.8913 32.6528C38.8913 33.0258 38.7432 33.3835 38.4795 33.6472C38.2157 33.9109 37.858 34.0591 37.4851 34.0591Z" fill="#002395"/>
<path d="M23.4229 43.9029C19.3217 43.8984 15.3897 42.2672 12.4897 39.3672C9.58974 36.4673 7.95857 32.5353 7.9541 28.4341V9.28381L23.4046 1.54944L38.1139 8.91397L36.8554 11.4283L23.4046 4.69381L10.7666 11.0219V28.4341C10.7663 30.7847 11.4207 33.0888 12.6562 35.0884C13.8918 37.088 15.6599 38.704 17.7622 39.7553C19.8645 40.8066 22.2181 41.2517 24.5591 41.0407C26.9001 40.8296 29.1362 39.9709 31.0166 38.5605L32.7041 40.8091C30.031 42.8258 26.7713 43.9123 23.4229 43.9029Z" fill="#002395"/>
</svg>
