<svg width="29" height="24" viewBox="0 0 29 24" fill="none" xmlns="http://www.w3.org/2000/svg">
<path d="M4.688 0C3.44467 0 2.25225 0.493913 1.37308 1.37308C0.493913 2.25225 0 3.44467 0 4.688V5.15914L14.064 12.7326L28.128 5.16149V4.688C28.128 3.44467 27.6341 2.25225 26.7549 1.37308C25.8757 0.493913 24.6833 0 23.44 0H4.688Z" fill="#CFDB00"/>
<path d="M28.128 7.82193L14.6195 15.0954C14.4488 15.1873 14.2579 15.2354 14.064 15.2354C13.8701 15.2354 13.6792 15.1873 13.5085 15.0954L0 7.82193V18.752C0 19.9953 0.493913 21.1877 1.37308 22.0669C2.25225 22.9461 3.44467 23.44 4.688 23.44H23.44C24.6833 23.44 25.8757 22.9461 26.7549 22.0669C27.6341 21.1877 28.128 19.9953 28.128 18.752V7.82193Z" fill="#CFDB00"/>
</svg>
