<svg width="31" height="31" viewBox="0 0 31 31" fill="none" xmlns="http://www.w3.org/2000/svg">
<path d="M26.0447 4.0376H4.48218C3.96362 4.0376 3.54468 4.45654 3.54468 4.9751V26.5376C3.54468 27.0562 3.96362 27.4751 4.48218 27.4751H26.0447C26.5632 27.4751 26.9822 27.0562 26.9822 26.5376V4.9751C26.9822 4.45654 26.5632 4.0376 26.0447 4.0376ZM23.3376 10.8784H21.4656C19.9978 10.8784 19.7136 11.5757 19.7136 12.6011V14.8599H23.2175L22.7605 18.396H19.7136V27.4751H16.0603V18.3989H13.0046V14.8599H16.0603V12.2524C16.0603 9.22607 17.9089 7.57666 20.6101 7.57666C21.905 7.57666 23.0154 7.67334 23.3406 7.71729V10.8784H23.3376Z" fill="#CFDB00"/>
</svg>
