<svg width="20" height="18" viewBox="0 0 20 18" fill="none" xmlns="http://www.w3.org/2000/svg">
<path d="M6.07666 10.438H5.46899C4.12643 10.438 3.03833 11.528 3.03833 12.8732V15.2948C3.03833 16.6396 4.12643 17.73 5.46899 17.73H6.07666C6.74775 17.73 7.29199 17.1846 7.29199 16.5124V11.6556C7.29199 10.983 6.74775 10.438 6.07666 10.438ZM13.9763 10.438H13.3687C12.6976 10.438 12.1533 10.983 12.1533 11.6556V16.5124C12.1533 17.1846 12.6976 17.73 13.3687 17.73H13.9763C15.3189 17.73 16.407 16.6396 16.407 15.2948V12.8732C16.407 11.5284 15.3189 10.438 13.9763 10.438ZM9.72266 0.715332C4.28822 0.715332 0.173565 5.23979 0 10.438V14.6917C0 15.0274 0.271931 15.2993 0.607666 15.2993H1.21533C1.55107 15.2993 1.823 15.0274 1.823 14.6917V10.438C1.823 6.08292 5.36759 2.54593 9.72266 2.54517C14.0777 2.54593 17.6223 6.08292 17.6223 10.438V14.6917C17.6223 15.0274 17.8942 15.2993 18.23 15.2993H18.8376C19.1734 15.2993 19.4453 15.0274 19.4453 14.6917V10.438C19.2717 5.23979 15.1571 0.715332 9.72266 0.715332Z" fill="#CFDB00"/>
</svg>
