<svg width="17" height="17" viewBox="0 0 17 17" fill="none" xmlns="http://www.w3.org/2000/svg">
<path fill-rule="evenodd" clip-rule="evenodd" d="M14.2579 3.17008C14.2579 3.03748 14.2053 2.9103 14.1115 2.81653C14.0177 2.72276 13.8905 2.67008 13.7579 2.67008L7.75794 2.67008C7.62533 2.67008 7.49815 2.72276 7.40438 2.81653C7.31061 2.9103 7.25794 3.03747 7.25794 3.17008C7.25794 3.30269 7.31061 3.42987 7.40438 3.52364C7.49815 3.61741 7.62533 3.67008 7.75794 3.67008L12.5509 3.67008L2.40393 13.8161C2.31005 13.91 2.2573 14.0373 2.2573 14.1701C2.2573 14.3029 2.31005 14.4302 2.40393 14.5241C2.49782 14.618 2.62516 14.6707 2.75793 14.6707C2.89071 14.6707 3.01805 14.618 3.11193 14.5241L13.2579 4.37708L13.2579 9.17008C13.2579 9.30269 13.3106 9.42987 13.4044 9.52364C13.4981 9.6174 13.6253 9.67008 13.7579 9.67008C13.8905 9.67008 14.0177 9.6174 14.1115 9.52364C14.2053 9.42987 14.2579 9.30269 14.2579 9.17008L14.2579 3.17008Z" fill="#00FF66"/>
</svg>
