<svg width="24" height="24" viewBox="0 0 24 24" fill="none" xmlns="http://www.w3.org/2000/svg">
<path d="M21.7105 0H1.73187C0.775034 0 0 0.751113 0 1.67924V21.7608C0 22.6889 0.775034 23.44 1.73187 23.44H21.7105C22.6674 23.44 23.4424 22.6865 23.4424 21.7608V1.67924C23.4424 0.751113 22.6674 0 21.7105 0ZM7.10687 19.6222H3.5642V9.03967H7.10687V19.6222ZM5.33673 7.59246H5.31281C4.12395 7.59246 3.35609 6.77916 3.35609 5.76252C3.35609 4.72436 4.14787 3.93497 5.36065 3.93497C6.57104 3.93497 7.31737 4.72436 7.34129 5.76252C7.3389 6.78155 6.57104 7.59246 5.33673 7.59246ZM19.8758 19.6222H16.3355V13.9602C16.3355 12.5369 15.8236 11.5657 14.5415 11.5657C13.5607 11.5657 12.9794 12.2211 12.7259 12.8526C12.6302 13.0775 12.6087 13.3933 12.6087 13.709V19.6198H9.06598C9.06598 19.6198 9.11143 10.0276 9.06598 9.03489H12.6063V10.5347C13.0751 9.81471 13.9171 8.78611 15.7973 8.78611C18.1272 8.78611 19.8758 10.2979 19.8758 13.5511V19.6222ZM12.5847 10.573C12.5919 10.5634 12.5991 10.5515 12.6087 10.5395V10.573H12.5847Z" fill="#CFDB00"/>
</svg>
