<svg width="32" height="29" viewBox="0 0 32 29" fill="none" xmlns="http://www.w3.org/2000/svg">
<path d="M10.3158 16.5061H9.33954C7.18262 16.5061 5.43451 18.2573 5.43451 20.4185V24.3088C5.43451 26.4694 7.18262 28.2212 9.33954 28.2212H10.3158C11.394 28.2212 12.2683 27.345 12.2683 26.265V18.4623C12.2683 17.3817 11.394 16.5061 10.3158 16.5061ZM23.0071 16.5061H22.0309C20.9527 16.5061 20.0784 17.3817 20.0784 18.4623V26.265C20.0784 27.345 20.9527 28.2212 22.0309 28.2212H23.0071C25.1641 28.2212 26.9122 26.4694 26.9122 24.3088V20.4185C26.9122 18.2579 25.1641 16.5061 23.0071 16.5061ZM16.1733 0.885986C7.44255 0.885986 0.832066 8.15483 0.553223 16.5061V23.3399C0.553223 23.8793 0.990098 24.3162 1.52948 24.3162H2.50574C3.04512 24.3162 3.48199 23.8793 3.48199 23.3399V16.5061C3.48199 9.50939 9.17663 3.82696 16.1733 3.82574C23.1701 3.82696 28.8647 9.50939 28.8647 16.5061V23.3399C28.8647 23.8793 29.3016 24.3162 29.8409 24.3162H30.8172C31.3566 24.3162 31.7935 23.8793 31.7935 23.3399V16.5061C31.5146 8.15483 24.9041 0.885986 16.1733 0.885986Z" fill="white"/>
</svg>
