<svg width="46" height="46" viewBox="0 0 46 46" fill="none" xmlns="http://www.w3.org/2000/svg">
<path d="M23.0566 4.44043C12.7179 4.44043 4.30664 12.8517 4.30664 23.1904V30.9586C4.30664 32.8786 5.98852 34.4404 8.05664 34.4404H9.93164C10.4289 34.4404 10.9058 34.2429 11.2575 33.8913C11.6091 33.5396 11.8066 33.0627 11.8066 32.5654V22.9223C11.8066 22.425 11.6091 21.9481 11.2575 21.5965C10.9058 21.2448 10.4289 21.0473 9.93164 21.0473H8.22914C9.27164 13.7911 15.5154 8.19043 23.0566 8.19043C30.5979 8.19043 36.8416 13.7911 37.8841 21.0473H36.1816C35.6844 21.0473 35.2074 21.2448 34.8558 21.5965C34.5042 21.9481 34.3066 22.425 34.3066 22.9223V34.4404C34.3066 36.5086 32.6248 38.1904 30.5566 38.1904H26.8066V36.3154H19.3066V41.9404H30.5566C34.6929 41.9404 38.0566 38.5767 38.0566 34.4404C40.1248 34.4404 41.8066 32.8786 41.8066 30.9586V23.1904C41.8066 12.8517 33.3954 4.44043 23.0566 4.44043Z" fill="#002395"/>
</svg>
