<svg width="46" height="47" viewBox="0 0 46 47" fill="none" xmlns="http://www.w3.org/2000/svg">
<path d="M36.7185 31.9451C35.7171 31.9504 34.7357 32.2306 33.8779 32.756L28.5158 27.3017C29.2798 26.1356 29.6875 24.7658 29.6875 23.3646C29.6875 21.9635 29.2798 20.5936 28.5158 19.4276L32.0976 15.7852C33.0036 16.229 34.0349 16.3324 35.0087 16.077C35.9826 15.8216 36.8361 15.2239 37.4181 14.3898C38.0001 13.5558 38.273 12.5391 38.1885 11.52C38.104 10.5009 37.6675 9.54508 36.9564 8.8219C36.2452 8.09871 35.3054 7.65484 34.3032 7.5689C33.3011 7.48296 32.3014 7.7605 31.4812 8.35236C30.661 8.94422 30.0733 9.8122 29.8222 10.8025C29.5711 11.7929 29.6727 12.8416 30.1091 13.763L26.5274 17.4055C25.3808 16.6286 24.0338 16.214 22.656 16.214C21.2782 16.214 19.9312 16.6286 18.7846 17.4055L13.4212 11.9511C13.9376 11.0792 14.2131 10.0817 14.2185 9.06379C14.2185 7.93241 13.8886 6.82644 13.2705 5.88574C12.6524 4.94503 11.7739 4.21184 10.7461 3.77888C9.71827 3.34592 8.58727 3.23264 7.49612 3.45336C6.40498 3.67408 5.4027 4.21889 4.61603 5.0189C3.82936 5.8189 3.29363 6.83817 3.07659 7.9478C2.85955 9.05744 2.97094 10.2076 3.39669 11.2529C3.82243 12.2981 4.5434 13.1915 5.46843 13.8201C6.39345 14.4486 7.48099 14.7841 8.59351 14.7841C9.5949 14.7788 10.5763 14.4987 11.4341 13.9733L16.7962 19.4276C16.0322 20.5936 15.6246 21.9635 15.6246 23.3646C15.6246 24.7658 16.0322 26.1356 16.7962 27.3017L11.4327 32.756C10.5753 32.2309 9.59441 31.9508 8.59351 31.9451C7.48099 31.9451 6.39345 32.2806 5.46843 32.9092C4.5434 33.5378 3.82243 34.4312 3.39669 35.4764C2.97094 36.5217 2.85955 37.6718 3.07659 38.7815C3.29363 39.8911 3.82936 40.9104 4.61603 41.7104C5.4027 42.5104 6.40498 43.0552 7.49612 43.2759C8.58727 43.4966 9.71827 43.3833 10.7461 42.9504C11.7739 42.5174 12.6524 41.7842 13.2705 40.8435C13.8886 39.9028 14.2185 38.7969 14.2185 37.6655C14.2133 36.6471 13.9378 35.6491 13.4212 34.7767L18.7846 29.3238C19.5325 29.8307 20.3695 30.1862 21.2498 30.3706V35.0684C20.3115 35.4058 19.5207 36.0696 19.0171 36.9425C18.5136 37.8155 18.3297 38.8414 18.498 39.8388C18.6663 40.8363 19.1759 41.7412 19.9368 42.3935C20.6977 43.0458 21.6608 43.4036 22.656 43.4036C23.6512 43.4036 24.6143 43.0458 25.3752 42.3935C26.1361 41.7412 26.6457 40.8363 26.814 39.8388C26.9823 38.8414 26.7984 37.8155 26.2949 36.9425C25.7913 36.0696 25.0005 35.4058 24.0623 35.0684V30.3706C24.9425 30.1862 25.7795 29.8307 26.5274 29.3238L31.8908 34.7781C31.3744 35.6501 31.099 36.6476 31.0935 37.6655C31.0935 38.7969 31.4234 39.9028 32.0415 40.8435C32.6596 41.7842 33.5381 42.5174 34.5659 42.9504C35.5937 43.3833 36.7247 43.4966 37.8159 43.2759C38.907 43.0552 39.9093 42.5104 40.696 41.7104C41.4826 40.9104 42.0184 39.8911 42.2354 38.7815C42.4525 37.6718 42.3411 36.5217 41.9153 35.4764C41.4896 34.4312 40.7686 33.5378 39.8436 32.9092C38.9186 32.2806 37.831 31.9451 36.7185 31.9451ZM22.656 19.0744C23.4904 19.0744 24.306 19.326 24.9998 19.7974C25.6936 20.2688 26.2343 20.9389 26.5536 21.7228C26.8729 22.5068 26.9565 23.3694 26.7937 24.2016C26.6309 25.0339 26.2291 25.7983 25.6391 26.3983C25.0491 26.9983 24.2974 27.4069 23.479 27.5725C22.6607 27.738 21.8124 27.653 21.0416 27.3283C20.2707 27.0036 19.6118 26.4537 19.1482 25.7482C18.6847 25.0426 18.4373 24.2132 18.4373 23.3646C18.4384 22.2271 18.8832 21.1366 19.6741 20.3322C20.4651 19.5279 21.5375 19.0755 22.656 19.0744ZM5.78101 9.06379C5.78101 8.4981 5.94596 7.94511 6.255 7.47476C6.56404 7.00441 7.00329 6.63781 7.51721 6.42133C8.03113 6.20485 8.59663 6.14821 9.1422 6.25857C9.68777 6.36893 10.1889 6.64134 10.5822 7.04134C10.9756 7.44134 11.2434 7.95098 11.352 8.5058C11.4605 9.06061 11.4048 9.6357 11.1919 10.1583C10.979 10.681 10.6186 11.1277 10.156 11.4419C9.69354 11.7562 9.14977 11.924 8.59351 11.924C7.84782 11.9232 7.13288 11.6216 6.60559 11.0854C6.07831 10.5492 5.78175 9.82212 5.78101 9.06379ZM8.59351 40.5257C8.03725 40.5257 7.49348 40.3579 7.03097 40.0436C6.56845 39.7293 6.20797 39.2826 5.9951 38.76C5.78222 38.2374 5.72653 37.6623 5.83505 37.1075C5.94357 36.5527 6.21143 36.043 6.60477 35.643C6.9981 35.243 7.49924 34.9706 8.04482 34.8603C8.59039 34.7499 9.15589 34.8066 9.6698 35.023C10.1837 35.2395 10.623 35.6061 10.932 36.0765C11.2411 36.5468 11.406 37.0998 11.406 37.6655C11.4053 38.4238 11.1087 39.1509 10.5814 39.6871C10.0541 40.2233 9.3392 40.5249 8.59351 40.5257ZM36.7185 40.5257C36.1622 40.5257 35.6185 40.3579 35.156 40.0436C34.6934 39.7293 34.333 39.2826 34.1201 38.76C33.9072 38.2374 33.8515 37.6623 33.96 37.1075C34.0686 36.5527 34.3364 36.043 34.7298 35.643C35.1231 35.243 35.6242 34.9706 36.1698 34.8603C36.7154 34.7499 37.2809 34.8066 37.7948 35.023C38.3087 35.2395 38.748 35.6061 39.057 36.0765C39.3661 36.5468 39.531 37.0998 39.531 37.6655C39.5299 38.4237 39.2332 39.1505 38.706 39.6867C38.1788 40.2228 37.4641 40.5245 36.7185 40.5257Z" fill="#002395"/>
</svg>
