<svg width="31" height="31" viewBox="0 0 31 31" fill="none" xmlns="http://www.w3.org/2000/svg">
<path d="M27.2535 9.00238C27.8247 11.2299 27.8247 15.8799 27.8247 15.8799C27.8247 15.8799 27.8247 20.5299 27.2535 22.7574C26.936 23.9886 26.0072 24.9574 24.831 25.2849C22.6947 25.8799 15.3247 25.8799 15.3247 25.8799C15.3247 25.8799 7.95846 25.8799 5.81846 25.2849C4.63721 24.9524 3.70971 23.9849 3.39596 22.7574C2.82471 20.5299 2.82471 15.8799 2.82471 15.8799C2.82471 15.8799 2.82471 11.2299 3.39596 9.00238C3.71346 7.77113 4.64221 6.80238 5.81846 6.47488C7.95846 5.87988 15.3247 5.87988 15.3247 5.87988C15.3247 5.87988 22.6947 5.87988 24.831 6.47488C26.0122 6.80738 26.9397 7.77488 27.2535 9.00238V9.00238ZM12.8247 20.2549L20.3247 15.8799L12.8247 11.5049V20.2549Z" fill="#CFDB00"/>
</svg>
