<svg width="25" height="26" viewBox="0 0 25 26" fill="none" xmlns="http://www.w3.org/2000/svg">
<path d="M16.8772 11.7993C16.8772 10.8647 16.8775 9.93012 16.8765 8.99554C16.8764 8.93214 16.9067 8.85108 16.7855 8.85351C16.5156 8.85895 16.2457 8.85712 15.9758 8.8541C15.9026 8.8533 15.8805 8.88138 15.8822 8.95131C15.886 9.10114 15.8834 9.25114 15.8834 9.40104C15.8834 11.0353 15.8829 12.6696 15.8837 14.3039C15.8839 14.603 16.0042 14.7231 16.3002 14.7257C16.4401 14.7269 16.5805 14.7183 16.7198 14.728C16.8412 14.7364 16.8811 14.7026 16.8803 14.573C16.8743 13.6485 16.8771 12.7238 16.8772 11.7993ZM19.8221 10.1771C18.5664 10.1779 17.5334 11.2151 17.5348 12.4736C17.5362 13.7267 18.5684 14.7682 19.8089 14.7682C21.0788 14.7682 22.1115 13.7371 22.1092 12.4715C22.1069 11.2081 21.0784 10.1763 19.8221 10.1771ZM14.1431 14.3236C14.2318 14.6396 14.3447 14.724 14.6709 14.7258C14.7658 14.7264 14.8613 14.72 14.9557 14.7273C15.0612 14.7355 15.0923 14.6951 15.0909 14.5909C15.0857 14.186 15.0887 13.781 15.0887 13.376C15.0887 12.4111 15.0871 11.4461 15.091 10.4812C15.0915 10.3688 15.0703 10.3188 14.9442 10.3274C14.775 10.3391 14.6044 10.3303 14.4345 10.3303C14.172 10.3304 14.1721 10.3304 14.1563 10.5887C14.1559 10.5957 14.1453 10.602 14.132 10.6171C13.6462 10.2884 13.1117 10.1458 12.5269 10.2273C11.9361 10.3096 11.4488 10.585 11.0771 11.05C10.4136 11.88 10.4046 13.0383 11.0452 13.856C11.3848 14.2895 11.8205 14.5702 12.3592 14.6884C13.0061 14.8303 13.5962 14.6833 14.1431 14.3236ZM8.85902 9.94482C8.82311 9.99314 8.79797 10.0294 8.77038 10.0638C7.78186 11.2948 6.7958 12.5277 5.80215 13.7545C5.60916 13.9927 5.51705 14.2487 5.5236 14.5538C5.52651 14.6884 5.55685 14.7297 5.69704 14.7291C7.06152 14.7238 8.42607 14.7261 9.79062 14.7261C9.83055 14.7261 9.87073 14.7265 9.91043 14.7228C10.1572 14.6999 10.3008 14.5517 10.3121 14.3033C10.3173 14.1885 10.3041 14.0723 10.3164 13.9587C10.3319 13.8169 10.277 13.7845 10.1418 13.7852C9.13715 13.7906 8.13251 13.7884 7.12784 13.7873C7.07573 13.7872 7.01985 13.8033 6.95731 13.7619C6.99038 13.717 7.02047 13.6736 7.0532 13.6323C7.33233 13.2798 7.61196 12.9277 7.89147 12.5755C8.59649 11.6873 9.29603 10.7945 10.01 9.91348C10.2247 9.64852 10.3128 9.35902 10.315 9.02886C10.3156 8.94385 10.2885 8.91744 10.2036 8.91754C8.72909 8.91966 7.25461 8.91983 5.7801 8.91726C5.68657 8.91709 5.66074 8.94794 5.66261 9.03766C5.66764 9.27745 5.67263 9.51786 5.66102 9.7572C5.6544 9.89323 5.69998 9.92284 5.8294 9.92208C6.75905 9.91653 7.68878 9.91871 8.61847 9.91941C8.69224 9.91948 8.76771 9.90831 8.85902 9.94482ZM6.93356 0.998738C12.5792 0.998738 18.2248 0.999118 23.8704 0.995894C23.9829 0.995859 24.0083 1.02124 24.0082 1.13373C24.005 7.02935 24.0054 12.925 24.0054 18.8206C23.9189 18.7916 23.903 18.8771 23.8673 18.9155C23.3043 19.5201 22.6614 20.0238 21.9521 20.4441C20.3835 21.3736 18.6716 21.8724 16.878 22.1168C15.3033 22.3313 13.7278 22.3222 12.1551 22.0897C10.3226 21.8188 8.58342 21.2796 7.00598 20.2819C6.94913 20.246 6.90326 20.2395 6.84069 20.2657C5.88122 20.6678 4.88844 20.8738 3.84362 20.7672C3.71407 20.6719 3.8024 20.5979 3.86865 20.5237C4.32278 20.0145 4.61852 19.4306 4.69801 18.7477C4.73819 18.4023 4.689 18.0853 4.48121 17.7812C3.90793 16.9423 3.49869 16.0197 3.19712 15.0522C2.63171 13.238 2.43244 11.3814 2.57631 9.48635C2.69875 7.87383 3.04857 6.3182 3.72156 4.84251C4.30392 3.56553 5.09398 2.44274 6.19478 1.556C6.43488 1.3626 6.68698 1.18407 6.93356 0.998738Z" fill="#FDFEFE"/>
<path d="M6.93358 0.99873C6.68699 1.18409 6.4349 1.36259 6.19479 1.556C5.09399 2.44273 4.30394 3.56552 3.72157 4.8425C3.04859 6.31819 2.69877 7.87382 2.57632 9.48634C2.43246 11.3814 2.63172 13.2381 3.19713 15.0522C3.4987 16.0197 3.90794 16.9422 4.48122 17.7812C4.68901 18.0853 4.73821 18.4023 4.69803 18.7476C4.61854 19.4306 4.32279 20.0145 3.86866 20.5237C3.80241 20.5979 3.71408 20.6719 3.84363 20.7671C3.91151 20.8314 3.98181 20.8933 4.04688 20.9603C4.31434 21.2359 4.57978 21.5134 4.84682 21.7893C5.19203 22.1461 5.53918 22.501 5.88352 22.8586C6.32587 23.3181 6.76634 23.7794 7.20737 24.2402C7.41766 24.4598 7.62729 24.6802 7.83754 24.8998C7.86542 24.929 7.89474 24.9565 7.89367 25.0013C5.30341 25.0013 2.71312 25.0005 0.122859 25.0042C0.0201069 25.0043 -3.4622e-05 24.984 4.46335e-08 24.8813C0.00308538 16.9604 0.00308538 9.03959 4.46335e-08 1.11875C-3.4622e-05 1.01603 0.0201069 0.99568 0.122859 0.995853C2.39307 0.999597 4.66333 0.99873 6.93358 0.99873Z" fill="#CFDB00"/>
<path d="M7.89367 25.0013C7.89474 24.9565 7.86541 24.929 7.83754 24.8998C7.62729 24.6802 7.41769 24.4598 7.20737 24.2402C6.76634 23.7794 6.32587 23.3181 5.88352 22.8586C5.53921 22.501 5.19202 22.1461 4.84681 21.7894C4.57977 21.5134 4.31433 21.2359 4.04688 20.9604C3.98181 20.8933 3.91151 20.8314 3.84363 20.7672C4.88845 20.8738 5.88123 20.6678 6.8407 20.2657C6.90327 20.2395 6.94914 20.246 7.00603 20.2819C8.58343 21.2797 10.3227 21.8188 12.1551 22.0898C13.7279 22.3222 15.3033 22.3313 16.8781 22.1168C18.6716 21.8724 20.3835 21.3736 21.9521 20.4441C22.6614 20.0238 23.3044 19.5201 23.8673 18.9155C23.903 18.8771 23.9189 18.7916 24.0054 18.8206C24.0054 20.8345 24.0037 22.8484 24.0093 24.8622C24.0096 24.991 23.9742 25.0042 23.8596 25.0042C18.5376 25.0009 13.2157 25.0013 7.89367 25.0013Z" fill="#CFDB00"/>
<path d="M8.85903 9.94481C8.76775 9.90831 8.69225 9.91947 8.61848 9.9194C7.68879 9.91874 6.7591 9.91652 5.82944 9.92207C5.69999 9.92283 5.65444 9.89323 5.66103 9.7572C5.67264 9.51786 5.66768 9.27748 5.66262 9.03765C5.66075 8.94797 5.68661 8.91708 5.78014 8.91726C7.25462 8.91986 8.72913 8.91965 10.2036 8.91753C10.2886 8.91743 10.3156 8.94385 10.315 9.02885C10.3129 9.35905 10.2247 9.64855 10.01 9.91347C9.29604 10.7945 8.59653 11.6873 7.89148 12.5755C7.61196 12.9277 7.33238 13.2798 7.05321 13.6323C7.02048 13.6736 6.99043 13.717 6.95732 13.7619C7.01986 13.8033 7.07574 13.7872 7.12784 13.7873C8.13252 13.7884 9.13719 13.7906 10.1418 13.7852C10.277 13.7845 10.3319 13.8169 10.3164 13.9587C10.3041 14.0723 10.3174 14.1885 10.3122 14.3033C10.3008 14.5517 10.1572 14.6999 9.91047 14.7229C9.87077 14.7265 9.8306 14.7261 9.79066 14.7261C8.42611 14.7261 7.06156 14.7238 5.69705 14.7291C5.55689 14.7296 5.52652 14.6884 5.52364 14.5538C5.51706 14.2487 5.6092 13.9927 5.80216 13.7545C6.79581 12.5277 7.7819 11.2948 8.77039 10.0638C8.79798 10.0294 8.82315 9.99314 8.85903 9.94481Z" fill="#CFDB00"/>
<path d="M11.5059 12.4712C11.5071 13.2121 12.1019 13.8086 12.8373 13.8066C13.562 13.8045 14.1587 13.2026 14.1583 12.474C14.1579 11.7357 13.5622 11.1397 12.825 11.1401C12.0981 11.1404 11.5049 11.7391 11.5059 12.4712ZM14.1431 14.3236C13.5962 14.6833 13.0061 14.8303 12.3592 14.6884C11.8205 14.5702 11.3849 14.2895 11.0452 13.856C10.4047 13.0383 10.4136 11.88 11.0772 11.0499C11.4488 10.585 11.9362 10.3096 12.5269 10.2273C13.1117 10.1458 13.6462 10.2884 14.132 10.6171C14.1453 10.602 14.1559 10.5957 14.1563 10.5887C14.1722 10.3304 14.1721 10.3304 14.4345 10.3304C14.6044 10.3303 14.775 10.3391 14.9443 10.3274C15.0703 10.3188 15.0915 10.3688 15.0911 10.4812C15.0871 11.4461 15.0887 12.4111 15.0887 13.376C15.0887 13.781 15.0857 14.186 15.091 14.591C15.0923 14.6951 15.0613 14.7355 14.9557 14.7273C14.8613 14.72 14.7659 14.7264 14.6709 14.7258C14.3447 14.7239 14.2318 14.6396 14.1431 14.3236Z" fill="#CFDB00"/>
<path d="M21.1618 12.474C21.1624 11.7217 20.5717 11.128 19.824 11.1295C19.0736 11.131 18.4806 11.7239 18.4821 12.4713C18.4836 13.2219 19.0767 13.8182 19.8215 13.8179C20.5699 13.8177 21.1611 13.2248 21.1618 12.474ZM19.8221 10.1771C21.0784 10.1763 22.1069 11.2081 22.1092 12.4715C22.1115 13.7371 21.0788 14.7682 19.8089 14.7682C18.5684 14.7682 17.5362 13.7267 17.5348 12.4736C17.5334 11.2151 18.5664 10.1779 19.8221 10.1771Z" fill="#CFDB00"/>
<path d="M16.8772 11.7993C16.8771 12.7238 16.8743 13.6485 16.8803 14.573C16.8811 14.7026 16.8412 14.7364 16.7198 14.7279C16.5806 14.7183 16.4401 14.7269 16.3002 14.7257C16.0042 14.7231 15.8839 14.603 15.8838 14.3039C15.883 12.6696 15.8834 11.0353 15.8834 9.40102C15.8834 9.25112 15.886 9.10112 15.8823 8.95129C15.8805 8.88137 15.9026 8.85329 15.9759 8.85408C16.2457 8.8571 16.5157 8.85894 16.7854 8.85349C16.9067 8.85107 16.8765 8.93212 16.8765 8.99552C16.8775 9.9301 16.8772 10.8647 16.8772 11.7993Z" fill="#CFDB00"/>
<path d="M11.5059 12.4712C11.5048 11.7391 12.0981 11.1405 12.825 11.1401C13.5622 11.1397 14.1579 11.7357 14.1583 12.474C14.1587 13.2026 13.562 13.8045 12.8373 13.8066C12.1019 13.8087 11.507 13.2121 11.5059 12.4712Z" fill="#FBFDFE"/>
<path d="M21.1618 12.474C21.1611 13.2249 20.5699 13.8177 19.8215 13.818C19.0767 13.8182 18.4836 13.2219 18.4822 12.4714C18.4807 11.7239 19.0736 11.131 19.824 11.1295C20.5717 11.128 21.1624 11.7217 21.1618 12.474Z" fill="#FBFDFE"/>
</svg>
