<svg width="17" height="14" viewBox="0 0 17 14" fill="none" xmlns="http://www.w3.org/2000/svg">
<path d="M6.31378 6.77992C8.06861 6.77992 9.49085 5.35769 9.49085 3.60285C9.49085 1.84802 8.06861 0.425781 6.31378 0.425781C4.55894 0.425781 3.13671 1.84802 3.13671 3.60285C3.13671 5.35769 4.55894 6.77992 6.31378 6.77992ZM8.53773 7.57419H8.12322C7.5722 7.82736 6.95912 7.97132 6.31378 7.97132C5.66844 7.97132 5.05784 7.82736 4.50434 7.57419H4.08983C2.24812 7.57419 0.753906 9.0684 0.753906 10.9101V11.9427C0.753906 12.6004 1.28755 13.1341 1.94531 13.1341H8.76856C8.70899 12.9653 8.68417 12.7866 8.70403 12.6054L8.87281 11.0938L8.90259 10.8183L9.09868 10.6222L11.0173 8.70354C10.4092 8.016 9.52808 7.57419 8.53773 7.57419ZM9.66211 11.1807L9.49333 12.6947C9.46603 12.9479 9.67949 13.1614 9.93018 13.1316L11.4418 12.9628L14.8646 9.54L13.0849 7.76034L9.66211 11.1807ZM16.4655 7.10011L15.5248 6.1594C15.294 5.92857 14.9167 5.92857 14.6859 6.1594L13.7476 7.09763L13.6459 7.19939L15.428 8.97905L16.4655 7.94154C16.6963 7.70822 16.6963 7.33343 16.4655 7.10011Z" fill="white"/>
</svg>
