<svg width="39" height="40" viewBox="0 0 39 40" fill="none" xmlns="http://www.w3.org/2000/svg">
<ellipse cx="19.7368" cy="19.9395" rx="19" ry="19.5" fill="#CFDB00"/>
<path d="M13.0701 13.6058V26.2725C13.0701 26.6924 13.2457 27.0951 13.5582 27.392C13.8708 27.689 14.2947 27.8558 14.7367 27.8558H24.7367C25.1788 27.8558 25.6027 27.689 25.9152 27.392C26.2278 27.0951 26.4034 26.6924 26.4034 26.2725V17.0432C26.4034 16.8323 26.359 16.6235 26.2728 16.4291C26.1867 16.2347 26.0605 16.0586 25.9017 15.9111L22.2017 12.4737C21.8904 12.1845 21.4722 12.0225 21.0367 12.0225H14.7367C14.2947 12.0225 13.8708 12.1893 13.5582 12.4862C13.2457 12.7831 13.0701 13.1859 13.0701 13.6058V13.6058Z" stroke="#002395" stroke-width="2" stroke-linecap="round" stroke-linejoin="round"/>
<path d="M17.2368 20.7305H22.2368" stroke="#002395" stroke-width="2" stroke-linecap="round" stroke-linejoin="round"/>
<path d="M17.2368 23.8975H19.7368" stroke="#002395" stroke-width="2" stroke-linecap="round" stroke-linejoin="round"/>
<path d="M21.4033 12.0225V15.1891C21.4033 15.6091 21.5789 16.0118 21.8915 16.3087C22.204 16.6056 22.628 16.7725 23.07 16.7725H26.4033" stroke="#002395" stroke-width="2" stroke-linejoin="round"/>
</svg>
