<svg width="87" height="26" viewBox="0 0 87 26" fill="none" xmlns="http://www.w3.org/2000/svg">
<g clip-path="url(#clip0_3876_2970)">
<path d="M10.29 0.735199H15.3826C15.5617 0.743046 15.735 0.800303 15.8826 0.900425C16.0303 1.00055 16.1463 1.13949 16.2174 1.30139L25.0293 24.9652C25.0599 25.0294 25.0725 25.1004 25.066 25.1709C25.0594 25.2415 25.0338 25.3091 24.9919 25.3667C24.95 25.4244 24.8932 25.47 24.8275 25.499C24.7617 25.5279 24.6893 25.5391 24.6176 25.5314H19.6115C19.4339 25.5243 19.2622 25.4671 19.1167 25.3667C18.9712 25.2663 18.8582 25.127 18.791 24.9652L17.0638 19.8695H8.15112L6.42387 24.9652C6.35733 25.1291 6.24326 25.2701 6.09585 25.3708C5.94845 25.4715 5.7742 25.5273 5.59479 25.5314H0.856354C0.78465 25.5398 0.71195 25.5291 0.645963 25.5002C0.579977 25.4714 0.523165 25.4255 0.481551 25.3674C0.439938 25.3094 0.415075 25.2413 0.409599 25.1705C0.404123 25.0997 0.418239 25.0287 0.450449 24.9652L9.44944 1.30705C9.52184 1.14491 9.63894 1.00594 9.7875 0.905878C9.93606 0.805814 10.1101 0.748651 10.29 0.740861V0.735199ZM15.6935 15.4957L12.6247 6.1253L9.47823 15.4957H15.6935Z" fill="#002395"/>
<path d="M47.3974 0.615984H56.3216C57.6803 0.583293 59.0355 0.766841 60.3346 1.15952C61.313 1.45843 62.2205 1.94747 63.0032 2.59764C63.6645 3.1609 64.1763 3.8741 64.4944 4.67555C64.7972 5.4586 64.9523 6.28938 64.9521 7.12714C64.9673 7.85642 64.8168 8.57984 64.5117 9.24468C64.2463 9.81587 63.8992 10.3468 63.4811 10.8215C63.1196 11.2291 62.6938 11.5771 62.2202 11.852C61.8675 12.0606 61.4893 12.2242 61.0946 12.3389C61.6394 12.4665 62.1699 12.6477 62.6779 12.8796C64.0192 13.484 65.1015 14.5333 65.7351 15.8436C66.1213 16.6592 66.3105 17.5515 66.2879 18.4509C66.3231 19.5907 66.0813 20.7223 65.5826 21.7518C65.1199 22.6412 64.4367 23.4016 63.5962 23.9627C62.6448 24.5766 61.581 25.0026 60.4641 25.2168C59.1004 25.492 57.7108 25.624 56.3187 25.6103H47.3946C47.2286 25.6118 47.0688 25.5486 46.9501 25.4346C46.8314 25.3205 46.7635 25.1649 46.7612 25.0017V1.2218C46.7643 1.05862 46.8329 0.903255 46.9521 0.789716C47.0714 0.676178 47.2315 0.613711 47.3974 0.615984ZM55.7833 10.6233C56.2148 10.6232 56.6448 10.5728 57.0643 10.4733C57.4598 10.3843 57.8354 10.225 58.1726 10.0034C58.4991 9.78021 58.7674 9.48437 58.9557 9.13993C59.17 8.72888 59.275 8.27113 59.2608 7.80939C59.2771 7.33568 59.1722 6.86552 58.9557 6.44205C58.7613 6.09953 58.4858 5.80819 58.1525 5.59277C57.8071 5.37738 57.4247 5.22579 57.024 5.14548C56.6162 5.05925 56.2004 5.0156 55.7833 5.01526H52.3863V10.6262L55.7833 10.6233ZM56.1287 21.2677C56.5879 21.2641 57.0465 21.2329 57.5019 21.1742C57.9959 21.1155 58.4749 20.9687 58.9154 20.7411C59.3549 20.512 59.729 20.1781 60.0035 19.7701C60.3253 19.2383 60.4786 18.6243 60.444 18.0064C60.478 17.4728 60.3559 16.9408 60.0921 16.4732C59.8284 16.0056 59.434 15.6221 58.9557 15.368C58.5149 15.1276 58.0361 14.962 57.5393 14.8782C57.0736 14.7962 56.6018 14.7526 56.1287 14.748H52.3863V21.2818L56.1287 21.2677Z" fill="#002395"/>
<path d="M36.6681 8.35269C35.7188 8.35437 34.7913 8.63274 34.0028 9.15262C33.2143 9.6725 32.6002 10.4106 32.238 11.2735C31.8759 12.1365 31.7821 13.0857 31.9683 14.0011C32.1546 14.9165 32.6126 15.7571 33.2845 16.4166C33.9563 17.0762 34.8119 17.5251 35.7432 17.7066C36.6744 17.8881 37.6394 17.7941 38.5163 17.4364C39.3932 17.0788 40.1426 16.4736 40.6699 15.6972C41.1971 14.9209 41.4785 14.0083 41.4785 13.0747C41.4763 11.8216 40.9684 10.6205 40.0666 9.73522C39.1647 8.84991 37.9424 8.35269 36.6681 8.35269Z" fill="#CCD600"/>
<path d="M41.4498 18.6006C40.1184 19.8584 38.3446 20.5622 36.4984 20.5653C32.4365 20.5653 29.1432 17.2106 29.1432 13.069C29.1432 8.9273 32.4365 5.57264 36.4984 5.57264C38.2808 5.57366 39.9989 6.22768 41.3174 7.40708C41.4313 7.51095 41.5809 7.56866 41.7363 7.56866C41.8916 7.56866 42.0412 7.51095 42.1551 7.40708L44.746 4.85924C44.8031 4.80631 44.8486 4.74247 44.8796 4.67164C44.9107 4.60081 44.9267 4.52448 44.9267 4.44734C44.9267 4.3702 44.9107 4.29387 44.8796 4.22304C44.8486 4.15221 44.8031 4.08837 44.746 4.03544C42.957 2.3675 40.7094 1.25293 38.282 0.830068C35.8546 0.407208 33.3543 0.694679 31.0916 1.6568C28.8288 2.61892 26.9032 4.21333 25.5538 6.24211C24.2043 8.2709 23.4905 10.6447 23.5008 13.069C23.4836 15.5135 24.2032 17.9082 25.5689 19.9509C26.9346 21.9936 28.885 23.5925 31.174 24.546C33.4631 25.4995 35.988 25.7646 38.4302 25.3081C40.8723 24.8515 43.1222 23.6937 44.8957 21.9807C44.9512 21.9263 44.9951 21.8617 45.0252 21.7905C45.0552 21.7193 45.0706 21.6431 45.0706 21.566C45.0706 21.489 45.0552 21.4127 45.0252 21.3415C44.9951 21.2704 44.9512 21.2057 44.8957 21.1513L42.2876 18.6034C42.1766 18.4961 42.0272 18.4359 41.8716 18.4359C41.7159 18.4359 41.5665 18.4961 41.4556 18.6034" fill="#002395"/>
<path d="M77.5436 25.6161C75.4464 25.6302 73.3827 25.0989 71.5615 24.0761C70.3369 23.3957 69.2655 22.4778 68.4122 21.3782L68.228 21.1319C68.1244 20.9972 68.0759 20.8292 68.0919 20.6611C68.1078 20.4929 68.1872 20.3367 68.3143 20.2232L71.075 17.7546C71.2028 17.6388 71.3705 17.575 71.5443 17.5763H71.5817C71.6737 17.5813 71.7638 17.6041 71.8468 17.6435C71.9298 17.6828 72.004 17.7379 72.0653 17.8056L72.2956 18.066C73.8588 19.8099 75.6005 20.6903 77.4774 20.6903C78.7585 20.6903 79.7372 20.4072 80.3792 19.841C80.6236 19.6185 80.8148 19.3453 80.9387 19.0413C81.0627 18.7373 81.1164 18.41 81.096 18.083C81.1104 17.6879 81.0135 17.2967 80.8158 16.9524C80.6182 16.6082 80.3276 16.3244 79.9762 16.1325C79.2651 15.6795 78.0906 15.2832 76.49 14.9322C74.1611 14.4594 72.3561 13.5677 71.1211 12.2824C70.5141 11.6728 70.038 10.9494 69.721 10.1553C69.404 9.3611 69.2526 8.51235 69.2758 7.65949C69.2498 6.6573 69.4655 5.66329 69.9053 4.75888C70.3451 3.85446 70.9966 3.06537 71.8062 2.45623C73.3118 1.26724 75.3126 0.664246 77.7451 0.664246C80.9895 0.664246 83.5919 1.81361 85.4775 4.07836L85.6876 4.32465C85.7989 4.45989 85.8536 4.63169 85.8408 4.80518C85.828 4.97867 85.7485 5.14086 85.6185 5.25886L82.9873 7.63967C82.8594 7.75555 82.692 7.82018 82.5181 7.82085H82.4807C82.3889 7.81635 82.2989 7.79402 82.2158 7.75515C82.1328 7.71628 82.0585 7.66164 81.997 7.59438L81.7639 7.33676C81.2537 6.74559 80.6164 6.27313 79.8981 5.95346C79.1797 5.63378 78.3982 5.47486 77.6098 5.48816C76.5044 5.48816 75.6638 5.77126 75.1168 6.30064C74.9462 6.46592 74.8115 6.66356 74.721 6.88158C74.6304 7.09959 74.5859 7.33343 74.59 7.5689C74.5731 7.84787 74.6303 8.12636 74.756 8.37701C74.8817 8.62766 75.0715 8.84185 75.3068 8.99852C75.753 9.31559 76.7663 9.80534 79.0492 10.3319C81.3321 10.8584 83.0795 11.7219 84.2943 12.8458C85.702 14.2018 86.4131 15.9881 86.4131 18.1594C86.4131 20.4978 85.417 22.4058 83.4566 23.8213C81.7384 25.0403 79.6616 25.6727 77.5436 25.6218" fill="#002395"/>
</g>
<defs>
<clipPath id="clip0_3876_2970">
<rect width="86" height="25" fill="white" transform="translate(0.413086 0.619385)"/>
</clipPath>
</defs>
</svg>
