<svg width="16" height="16" viewBox="0 0 16 16" fill="none" xmlns="http://www.w3.org/2000/svg">
<path fill-rule="evenodd" clip-rule="evenodd" d="M3.89024 3.36776C4.03089 3.22716 4.22162 3.14817 4.42049 3.14817C4.61937 3.14817 4.8101 3.22716 4.95074 3.36776L8.17049 6.58751L11.3902 3.36776C11.4594 3.29613 11.5422 3.23899 11.6337 3.19968C11.7252 3.16038 11.8236 3.13969 11.9232 3.13882C12.0228 3.13796 12.1215 3.15693 12.2137 3.19464C12.3059 3.23235 12.3896 3.28804 12.46 3.35846C12.5305 3.42888 12.5861 3.51262 12.6239 3.60479C12.6616 3.69697 12.6805 3.79573 12.6797 3.89531C12.6788 3.9949 12.6581 4.09331 12.6188 4.18481C12.5795 4.27632 12.5224 4.35907 12.4507 4.42826L9.23099 7.64801L12.4507 10.8678C12.5874 11.0092 12.663 11.1987 12.6612 11.3953C12.6595 11.592 12.5807 11.7801 12.4416 11.9191C12.3026 12.0582 12.1144 12.1371 11.9178 12.1388C11.7211 12.1405 11.5317 12.0649 11.3902 11.9283L8.17049 8.70851L4.95074 11.9283C4.80929 12.0649 4.61984 12.1405 4.42319 12.1388C4.22655 12.1371 4.03844 12.0582 3.89938 11.9191C3.76032 11.7801 3.68145 11.592 3.67974 11.3953C3.67803 11.1987 3.75363 11.0092 3.89024 10.8678L7.10999 7.64801L3.89024 4.42826C3.74964 4.28761 3.67065 4.09688 3.67065 3.89801C3.67065 3.69914 3.74964 3.50841 3.89024 3.36776Z" fill="#002395"/>
</svg>
