<svg width="15" height="15" viewBox="0 0 15 15" fill="none" xmlns="http://www.w3.org/2000/svg">
<path d="M7.78419 6.51753C7.42419 6.42753 7.06419 6.24753 6.79419 5.97753C6.52419 5.88753 6.43419 5.61753 6.43419 5.43753C6.43419 5.25753 6.52419 4.98753 6.70419 4.89753C6.97419 4.71753 7.24419 4.53753 7.51419 4.62753C8.05419 4.62753 8.50419 4.89753 8.77419 5.25753L9.58419 4.17753C9.31419 3.90753 9.04419 3.72753 8.77419 3.54753C8.50419 3.36753 8.14419 3.27753 7.78419 3.27753V2.01753H6.70419V3.27753C6.25419 3.36753 5.80419 3.63753 5.44419 3.99753C5.08419 4.44753 4.81419 4.98753 4.90419 5.52753C4.90419 6.06753 5.08419 6.60753 5.44419 6.96753C5.89419 7.41753 6.52419 7.68753 7.06419 7.95753C7.33419 8.04753 7.69419 8.22753 7.96419 8.40753C8.14419 8.58753 8.23419 8.85753 8.23419 9.12753C8.23419 9.39753 8.14419 9.66753 7.96419 9.93753C7.69419 10.2075 7.33419 10.2975 7.06419 10.2975C6.70419 10.2975 6.25419 10.2075 5.98419 9.93753C5.71419 9.75753 5.44419 9.48753 5.26419 9.21753L4.36419 10.2075C4.63419 10.5675 4.90419 10.8375 5.26419 11.1075C5.71419 11.3775 6.25419 11.6475 6.79419 11.6475V12.8175H7.78419V11.4675C8.32419 11.3775 8.77419 11.1075 9.13419 10.7475C9.58419 10.2975 9.85419 9.57753 9.85419 8.94753C9.85419 8.40753 9.67419 7.77753 9.22419 7.41753C8.77419 6.96753 8.32419 6.69753 7.78419 6.51753V6.51753ZM7.24419 0.217529C3.28419 0.217529 0.0441895 3.45753 0.0441895 7.41753C0.0441895 11.3775 3.28419 14.6175 7.24419 14.6175C11.2042 14.6175 14.4442 11.3775 14.4442 7.41753C14.4442 3.45753 11.2042 0.217529 7.24419 0.217529ZM7.24419 13.6275C3.82419 13.6275 1.03419 10.8375 1.03419 7.41753C1.03419 3.99753 3.82419 1.20753 7.24419 1.20753C10.6642 1.20753 13.4542 3.99753 13.4542 7.41753C13.4542 10.8375 10.6642 13.6275 7.24419 13.6275V13.6275Z" fill="#717171"/>
</svg>
