<svg width="15" height="19" viewBox="0 0 15 19" fill="none" xmlns="http://www.w3.org/2000/svg">
<path d="M7.49998 18.4693C6.23693 17.3919 5.06618 16.2108 3.99999 14.9383C2.4 13.0273 0.500001 10.1813 0.500001 7.46931C0.499307 6.08428 0.909508 4.73016 1.67869 3.57835C2.44787 2.42653 3.54146 1.52879 4.82106 0.998726C6.10065 0.468667 7.50873 0.330121 8.8671 0.600622C10.2255 0.871122 11.473 1.53851 12.452 2.51832C13.1037 3.16718 13.6203 3.93886 13.9719 4.78869C14.3234 5.63853 14.5029 6.54964 14.5 7.46931C14.5 10.1813 12.6 13.0273 11 14.9383C9.93378 16.2108 8.76304 17.3919 7.49998 18.4693ZM7.49998 4.46932C6.70434 4.46932 5.94128 4.78539 5.37867 5.348C4.81606 5.9106 4.49999 6.67366 4.49999 7.46931C4.49999 8.26496 4.81606 9.02802 5.37867 9.59063C5.94128 10.1532 6.70434 10.4693 7.49998 10.4693C8.29563 10.4693 9.05869 10.1532 9.6213 9.59063C10.1839 9.02802 10.5 8.26496 10.5 7.46931C10.5 6.67366 10.1839 5.9106 9.6213 5.348C9.05869 4.78539 8.29563 4.46932 7.49998 4.46932Z" fill="#717171"/>
</svg>
