<svg width="25" height="23" viewBox="0 0 25 23" fill="none" xmlns="http://www.w3.org/2000/svg">
<path d="M24.9986 7.58301C24.8848 1.90197 17.9524 -2.2848 12.5 2.48278C7.05129 -2.28173 0.11521 1.89919 0.00141287 7.58301C-0.0402966 9.6654 0.842196 11.6703 2.55336 13.3811C2.558 13.386 6.02677 16.8357 11.9832 22.7597C12.269 23.044 12.7309 23.0441 13.0168 22.7597L22.4466 13.3811C24.1578 11.6704 25.0402 9.6654 24.9986 7.58301ZM12.5 21.207L4.45427 13.2049H7.02853C7.28592 13.2049 7.52446 13.0699 7.65686 12.8493L8.2193 11.9121L10.3185 15.21C10.6272 15.6951 11.3521 15.6512 11.5989 15.1303L14.4959 9.01598L16.5445 12.8197C16.6724 13.057 16.9201 13.205 17.1897 13.205H20.5456L12.5 21.207ZM21.9632 11.7397H17.6275L15.0993 7.04567C14.8159 6.51946 14.0494 6.53578 13.7919 7.07937L10.8425 13.3041L8.81921 10.1255C8.52421 9.66179 7.85032 9.67927 7.57266 10.1418L6.61368 11.7398H3.03697C1.97851 10.4671 1.43785 9.05363 1.46667 7.61236C1.55814 3.04429 7.38111 -0.595764 11.9819 4.00381C12.2678 4.28967 12.732 4.28991 13.0181 4.00381C18.8923 -1.86903 26.968 5.72288 21.9632 11.7397Z" fill="#CFDB00"/>
</svg>
