<svg width="15" height="19" viewBox="0 0 15 19" fill="none" xmlns="http://www.w3.org/2000/svg">
<path d="M7.41624 18.417C6.15319 17.3397 4.98244 16.1586 3.91625 14.886C2.31626 12.9751 0.416261 10.1291 0.416261 7.41707C0.415567 6.03203 0.825768 4.67792 1.59495 3.5261C2.36413 2.37429 3.45772 1.47654 4.73732 0.94648C6.01691 0.416421 7.42499 0.277875 8.78336 0.548376C10.1417 0.818876 11.3893 1.48626 12.3682 2.46608C13.02 3.11494 13.5366 3.88661 13.8881 4.73645C14.2397 5.58628 14.4192 6.4974 14.4162 7.41707C14.4162 10.1291 12.5162 12.9751 10.9162 14.886C9.85004 16.1586 8.6793 17.3397 7.41624 18.417ZM7.41624 4.41707C6.6206 4.41707 5.85754 4.73314 5.29493 5.29575C4.73232 5.85836 4.41625 6.62142 4.41625 7.41707C4.41625 8.21271 4.73232 8.97577 5.29493 9.53838C5.85754 10.101 6.6206 10.4171 7.41624 10.4171C8.21189 10.4171 8.97495 10.101 9.53756 9.53838C10.1002 8.97577 10.4162 8.21271 10.4162 7.41707C10.4162 6.62142 10.1002 5.85836 9.53756 5.29575C8.97495 4.73314 8.21189 4.41707 7.41624 4.41707Z" fill="#717171"/>
</svg>
