<svg width="21" height="21" viewBox="0 0 21 21" fill="none" xmlns="http://www.w3.org/2000/svg">
<path fill-rule="evenodd" clip-rule="evenodd" d="M4.5 4.40869C4.5 3.87826 4.71071 3.36955 5.08579 2.99448C5.46086 2.61941 5.96957 2.40869 6.5 2.40869H14.5C15.0304 2.40869 15.5391 2.61941 15.9142 2.99448C16.2893 3.36955 16.5 3.87826 16.5 4.40869V16.4087C16.7652 16.4087 17.0196 16.514 17.2071 16.7016C17.3946 16.8891 17.5 17.1435 17.5 17.4087C17.5 17.6739 17.3946 17.9283 17.2071 18.1158C17.0196 18.3033 16.7652 18.4087 16.5 18.4087H13.5C13.2348 18.4087 12.9804 18.3033 12.7929 18.1158C12.6054 17.9283 12.5 17.6739 12.5 17.4087V15.4087C12.5 15.1435 12.3946 14.8891 12.2071 14.7016C12.0196 14.514 11.7652 14.4087 11.5 14.4087H9.5C9.23478 14.4087 8.98043 14.514 8.79289 14.7016C8.60536 14.8891 8.5 15.1435 8.5 15.4087V17.4087C8.5 17.6739 8.39464 17.9283 8.20711 18.1158C8.01957 18.3033 7.76522 18.4087 7.5 18.4087H4.5C4.23478 18.4087 3.98043 18.3033 3.79289 18.1158C3.60536 17.9283 3.5 17.6739 3.5 17.4087C3.5 17.1435 3.60536 16.8891 3.79289 16.7016C3.98043 16.514 4.23478 16.4087 4.5 16.4087V4.40869ZM7.5 5.40869H9.5V7.40869H7.5V5.40869ZM9.5 9.40869H7.5V11.4087H9.5V9.40869ZM11.5 5.40869H13.5V7.40869H11.5V5.40869ZM13.5 9.40869H11.5V11.4087H13.5V9.40869Z" fill="#717171"/>
</svg>
