<svg width="26" height="26" viewBox="0 0 26 26" fill="none" xmlns="http://www.w3.org/2000/svg">
<g clip-path="url(#clip0_3640_426)">
<path d="M12.959 25.8921C9.62012 25.8921 6.48105 24.5919 4.12012 22.231C1.75918 19.87 0.458984 16.731 0.458984 13.3921C0.458984 10.0532 1.75923 6.91421 4.12012 4.55322C6.48101 2.19224 9.62012 0.89209 12.959 0.89209C16.2979 0.89209 19.4369 2.19229 21.7979 4.55322C24.1588 6.91416 25.459 10.0532 25.459 13.3921C25.459 16.731 24.1587 19.87 21.7979 22.231C19.437 24.5919 16.2979 25.8921 12.959 25.8921ZM12.959 2.45459C6.92803 2.45459 2.02148 7.36113 2.02148 13.3921C2.02148 19.423 6.92803 24.3296 12.959 24.3296C18.9899 24.3296 23.8965 19.423 23.8965 13.3921C23.8965 7.36113 18.9899 2.45459 12.959 2.45459Z" fill="#CFDB00"/>
<path d="M12.959 12.6108C11.882 12.6108 11.0059 11.7347 11.0059 10.6577C11.0059 9.58076 11.882 8.70459 12.959 8.70459C14.0359 8.70459 14.9121 9.58076 14.9121 10.6577C14.9121 11.0892 15.2619 11.439 15.6934 11.439C16.1249 11.439 16.4746 11.0892 16.4746 10.6577C16.4746 8.98774 15.3038 7.58701 13.7402 7.23066V6.36084C13.7402 5.92939 13.3905 5.57959 12.959 5.57959C12.5275 5.57959 12.1777 5.92939 12.1777 6.36084V7.23066C10.6142 7.58701 9.44336 8.98774 9.44336 10.6577C9.44336 12.5962 11.0205 14.1733 12.959 14.1733C14.0359 14.1733 14.9121 15.0495 14.9121 16.1265C14.9121 17.2034 14.0359 18.0796 12.959 18.0796C11.882 18.0796 11.0059 17.2034 11.0059 16.1265C11.0059 15.695 10.6561 15.3452 10.2246 15.3452C9.79312 15.3452 9.44336 15.695 9.44336 16.1265C9.44336 17.7964 10.6142 19.1972 12.1777 19.5535V20.4233C12.1777 20.8548 12.5275 21.2046 12.959 21.2046C13.3905 21.2046 13.7402 20.8548 13.7402 20.4233V19.5535C15.3038 19.1972 16.4746 17.7964 16.4746 16.1265C16.4746 14.1879 14.8975 12.6108 12.959 12.6108Z" fill="#CFDB00"/>
</g>
<defs>
<clipPath id="clip0_3640_426">
<rect width="25" height="25" fill="white" transform="translate(0.458984 0.89209)"/>
</clipPath>
</defs>
</svg>
