<svg width="29" height="30" viewBox="0 0 29 30" fill="none" xmlns="http://www.w3.org/2000/svg">
<g clip-path="url(#clip0_3663_1465)">
<path fill-rule="evenodd" clip-rule="evenodd" d="M14.4999 7.01848C14.7651 7.01852 15.0194 7.12388 15.2069 7.31138C15.3944 7.49888 15.4998 7.75317 15.4998 8.01833L15.4998 14.0896L21.571 14.0896C21.7038 14.0872 21.8357 14.1114 21.959 14.1606C22.0823 14.2098 22.1946 14.2831 22.2893 14.3762C22.384 14.4692 22.4593 14.5803 22.5106 14.7027C22.5619 14.8252 22.5884 14.9566 22.5884 15.0894C22.5884 15.2222 22.5619 15.3536 22.5106 15.4761C22.4593 15.5985 22.384 15.7096 22.2893 15.8026C22.1946 15.8957 22.0823 15.969 21.959 16.0182C21.8357 16.0674 21.7038 16.0916 21.571 16.0892L15.4998 16.0892V22.1605C15.4952 22.4226 15.3879 22.6725 15.2009 22.8563C15.0139 23.0401 14.7622 23.1431 14.4999 23.1431C14.2377 23.1431 13.986 23.0401 13.799 22.8563C13.612 22.6725 13.5047 22.4226 13.5001 22.1605V16.0892H7.42888C7.16671 16.0847 6.91683 15.9773 6.73304 15.7903C6.54925 15.6033 6.44626 15.3516 6.44626 15.0894C6.44626 14.8272 6.54925 14.5755 6.73304 14.3885C6.91683 14.2015 7.16671 14.0941 7.42888 14.0896H13.5001L13.5001 8.01833C13.5001 7.75317 13.6055 7.49888 13.793 7.31138C13.9805 7.12388 14.2348 7.01852 14.4999 7.01848Z" fill="black"/>
</g>
<defs>
<clipPath id="clip0_3663_1465">
<rect width="20" height="20" fill="white" transform="translate(14.5 0.947266) rotate(45)"/>
</clipPath>
</defs>
</svg>
