<svg width="57" height="61" viewBox="0 0 57 61" fill="none" xmlns="http://www.w3.org/2000/svg">
<path d="M56.6324 38.1005C56.6324 36.3227 55.186 34.8763 53.4082 34.8763H48.0513V25.7642C48.0513 25.249 47.8095 24.7638 47.3982 24.4536L25.4224 7.88179C24.8371 7.44045 24.0309 7.44045 23.4455 7.88179L1.46976 24.4536C1.05843 24.7638 0.81665 25.249 0.81665 25.7642V53.6653C0.81665 54.5719 1.5516 55.3069 2.45821 55.3069H28.0438V57.3363C28.0438 59.1141 29.4902 60.5606 31.268 60.5606H53.4082C55.186 60.5606 56.6324 59.1141 56.6324 57.3363V53.0347C56.6324 52.4595 56.4791 51.9201 56.2141 51.452C56.4793 50.9839 56.6324 50.4446 56.6324 49.8693V45.5675C56.6324 44.9923 56.4791 44.4529 56.2141 43.9848C56.4791 43.5167 56.6324 42.9774 56.6324 42.4021V38.1005ZM31.3266 53.0936H53.3491V57.2774H31.3266V53.0936ZM4.09977 26.5827L24.434 11.2489L44.7682 26.5827V34.8765H31.268C29.4902 34.8765 28.0438 36.3227 28.0438 38.1008V42.4026C28.0438 42.9778 28.1971 43.5172 28.4621 43.9853C28.1971 44.4534 28.0438 44.9927 28.0438 45.568V49.8698C28.0438 50.445 28.1971 50.9844 28.4621 51.4525C28.3599 51.6331 28.2748 51.8242 28.2084 52.0242H4.09977V26.5827ZM53.3493 49.8105H31.3269V45.6266H53.3493V49.8105ZM53.3493 42.3435H31.3269V38.1596H53.3493V42.3435Z" fill="#CFDB00"/>
<path d="M3.44672 20.0827L24.434 4.25644L45.4214 20.0827C45.7175 20.306 46.0644 20.4138 46.4086 20.4138C46.906 20.4138 47.3978 20.1885 47.7205 19.7605C48.2664 19.0366 48.1222 18.0073 47.3983 17.4614L25.4225 0.889602C24.8372 0.448258 24.0309 0.448258 23.4456 0.889602L1.46981 17.4614C0.745884 18.0073 0.601662 19.0366 1.1476 19.7605C1.6933 20.4842 2.72302 20.6282 3.44672 20.0827Z" fill="#CFDB00"/>
</svg>
