<svg width="61" height="61" viewBox="0 0 61 61" fill="none" xmlns="http://www.w3.org/2000/svg">
<g clip-path="url(#clip0_3189:676)">
<path d="M15.7845 43.3489H44.4514C45.1878 43.3489 45.7846 42.7521 45.7846 42.0158C45.7846 41.2794 45.1878 40.6826 44.4514 40.6826H42.4735V15.994C42.4735 15.2577 41.8767 14.6609 41.1404 14.6609H40.5689L40.5692 1.89173C40.5692 1.15539 39.9724 0.558594 39.2361 0.558594C38.4999 0.558594 37.9029 1.15539 37.9029 1.89173L37.9026 15.994C37.9026 16.3476 38.0431 16.6867 38.2931 16.9367C38.5431 17.1868 38.8822 17.3272 39.2358 17.3272H39.8072V40.6826H35.3295V9.76758C35.3295 9.29417 35.0783 8.85616 34.6696 8.61694C34.261 8.37786 33.7562 8.37342 33.3433 8.60538L25.0881 13.2447C24.668 13.4808 24.4081 13.925 24.4081 14.4069V16.0884C24.4081 16.8247 25.0049 17.4215 25.7412 17.4215C26.4775 17.4215 27.0743 16.8247 27.0743 16.0884V15.1869L32.6633 12.046V40.6826H28.4008V21.0031C28.4008 20.2667 27.804 19.6699 27.0677 19.6699H19.7488C19.0124 19.6699 18.4156 20.2667 18.4156 21.0031V40.6826H15.7845C15.0482 40.6826 14.4514 41.2794 14.4514 42.0158C14.4514 42.7521 15.0482 43.3489 15.7845 43.3489ZM21.0819 22.3362H25.7345V40.6826H21.0819V22.3362ZM54.8031 46.3413C54.8031 54.1807 48.4255 60.5584 40.5862 60.5584H19.6498C11.8106 60.5584 5.43286 54.1806 5.43286 46.3413C5.43286 41.3569 8.11409 36.6692 12.4303 34.1078C13.0633 33.7317 13.8814 33.9404 14.2572 34.5738C14.633 35.2069 14.4242 36.0248 13.7912 36.4005C10.2803 38.484 8.09927 42.2931 8.09927 46.3412C8.09927 52.7104 13.2809 57.892 19.65 57.892H40.5865C46.9555 57.892 52.1371 52.7104 52.1371 46.3412C52.1371 42.2932 49.9561 38.4841 46.4452 36.4009C45.812 36.0251 45.6033 35.2072 45.979 34.5741C46.3548 33.941 47.1726 33.7323 47.8059 34.1079C52.1218 36.6693 54.8031 41.3569 54.8031 46.3413ZM45.4605 46.1901C46.1781 46.3548 46.6262 47.0701 46.4613 47.7878C45.7905 50.7085 43.1313 52.8282 40.1383 52.8282H20.0973C17.1047 52.8282 14.4457 50.7084 13.7747 47.7879C13.6099 47.0703 14.0579 46.355 14.7755 46.1901C15.4933 46.0248 16.2083 46.4733 16.3733 47.1908C16.7688 48.9125 18.3351 50.1621 20.0973 50.1621H40.1383C41.901 50.1621 43.4673 48.9125 43.8628 47.191C44.0276 46.4733 44.7431 46.0245 45.4605 46.1901Z" fill="#CFDB00"/>
</g>
<defs>
<clipPath id="clip0_3189:676">
<rect width="60" height="60" fill="white" transform="translate(0.118042 0.558594)"/>
</clipPath>
</defs>
</svg>
