<svg width="61" height="61" viewBox="0 0 61 61" fill="none" xmlns="http://www.w3.org/2000/svg">
<path d="M30.5311 0.589844C13.9895 0.589844 0.531128 14.0334 0.531128 30.5588C0.531128 47.0843 13.9895 60.5278 30.5311 60.5278C47.0727 60.5278 60.5311 47.0843 60.5311 30.5588C60.5311 14.0334 47.0727 0.589844 30.5311 0.589844ZM51.9753 12.5011C55.9073 17.153 58.3489 23.0946 58.5705 29.5921H51.7973C51.565 24.4413 49.4921 19.7623 46.2182 16.1969C49.3266 14.859 51.1208 13.3634 51.9753 12.5011ZM50.6737 11.0664C49.9614 11.7992 48.1402 13.3798 44.7221 14.7217C44.1385 14.1996 43.524 13.7114 42.8853 13.2551C40.1302 8.06276 36.5969 4.68883 34.0905 2.75825C40.5608 3.57901 46.3489 6.60781 50.6737 11.0664ZM31.4989 3.27932C33.3047 4.48968 36.5485 7.03704 39.4121 11.2366C36.984 10.118 34.3131 9.44133 31.4989 9.31469V3.27932ZM26.9718 2.75631C24.4644 4.6869 20.9321 8.06179 18.1769 13.2532C17.5382 13.7095 16.9237 14.1977 16.3402 14.7197C12.9221 13.3789 11.1008 11.7973 10.3885 11.0645C14.7134 6.60781 20.5014 3.57901 26.9718 2.75631ZM29.5634 3.28319V9.31469C26.7502 9.44133 24.0802 10.1181 21.6531 11.2356C24.5108 7.05058 27.7556 4.49838 29.5634 3.28319ZM9.08597 12.5011C9.94145 13.3634 11.7356 14.859 14.844 16.1969C11.5711 19.7623 9.49726 24.4413 9.265 29.5921H2.49081C2.71242 23.0946 5.155 17.153 9.08597 12.5011ZM9.08693 48.6166C5.155 43.9646 2.71339 38.0231 2.49081 31.5256H9.265C9.49726 36.6764 11.5702 41.3554 14.844 44.9208C11.7356 46.2587 9.94145 47.7543 9.08693 48.6166ZM10.3885 50.0513C11.1008 49.3185 12.9221 47.7378 16.3402 46.396C16.9237 46.918 17.5382 47.4062 18.1769 47.8625C20.9321 53.0549 24.4653 56.4288 26.9718 58.3594C20.5014 57.5387 14.7134 54.5099 10.3885 50.0513ZM29.5634 57.8384C27.7576 56.628 24.5137 54.0806 21.6502 49.8811C24.0782 50.9996 26.7502 51.6763 29.5634 51.803V57.8384ZM11.1763 30.5588C11.1763 19.8976 19.8589 11.224 30.5311 11.224C41.2034 11.224 49.886 19.8976 49.886 30.5588C49.886 41.2201 41.2034 49.8937 30.5311 49.8937C19.8589 49.8937 11.1763 41.2201 11.1763 30.5588ZM31.4989 51.803C34.3121 51.6763 36.9821 50.9996 39.4092 49.8821C36.5514 54.0661 33.3056 56.6193 31.4989 57.8345V51.803ZM34.0905 58.3614C36.5979 56.4308 40.1302 53.0559 42.8853 47.8645C43.524 47.4082 44.1385 46.92 44.7221 46.3979C48.1402 47.7388 49.9614 49.3204 50.6737 50.0532C46.3489 54.5099 40.5608 57.5387 34.0905 58.3614ZM46.2182 44.9208C49.4911 41.3554 51.565 36.6764 51.7973 31.5256H58.5714C58.3498 38.0231 55.9073 43.9646 51.9763 48.6166C51.1208 47.7543 49.3266 46.2587 46.2182 44.9208Z" fill="#CFDB00"/>
<path d="M45.0472 23.192L30.531 15.9414L16.0149 23.192V27.6564H17.9504V43.1243H43.1117V27.6564H45.0472V23.192ZM34.402 41.1908H26.6601V35.3903C26.6601 33.2577 28.3962 31.5233 30.531 31.5233C32.6659 31.5233 34.402 33.2577 34.402 35.3903V41.1908ZM41.1762 41.1908H36.3375V35.3903C36.3375 32.1914 33.7333 29.5899 30.531 29.5899C27.3288 29.5899 24.7246 32.1914 24.7246 35.3903V41.1908H19.8859V27.6564H41.1762V41.1908ZM43.1117 25.7229H17.9504V24.3869L30.531 18.103L43.1117 24.3869V25.7229Z" fill="#CFDB00"/>
</svg>
