<svg width="40" height="35" viewBox="0 0 40 35" fill="none" xmlns="http://www.w3.org/2000/svg">
<path d="M39.2293 28.5335L33.5618 21.0637C32.3129 19.4175 30.444 18.3213 28.4203 18.0087C29.7346 16.1288 30.4398 13.9181 30.4398 11.5882C30.4398 5.22642 25.0692 0.0507812 18.4678 0.0507812C11.8664 0.0507812 6.49581 5.22642 6.49581 11.5882C6.49581 13.8168 7.15671 15.98 8.40711 17.844C9.4996 19.4726 10.992 20.8027 12.7485 21.7239C13.0732 22.9908 14.2573 23.9417 15.6506 23.9716L22.8017 24.1247C22.9874 24.1287 23.1041 24.2256 23.1572 24.2829C23.2102 24.3403 23.2967 24.4633 23.2794 24.6416C23.256 24.8835 23.0421 25.0706 22.7907 25.0706C22.7882 25.0706 22.7856 25.0705 22.7831 25.0705L14.5676 24.9477C14.1147 24.9409 13.6725 24.7844 13.3227 24.507L6.048 18.7402C4.65929 17.6393 2.61027 17.7691 1.38297 19.0356C0.758579 19.68 0.432999 20.5201 0.466174 21.4012C0.499348 22.2823 0.887384 23.0974 1.55882 23.6964L10.8069 31.9478C11.9509 32.9684 13.4389 33.5581 14.997 33.6082L28.7321 34.0501C28.746 34.0505 28.7597 34.0508 28.7735 34.0508C29.4266 34.0508 29.9667 33.5512 29.9887 32.9174C30.0111 32.2702 29.4849 31.7281 28.8133 31.7065L15.0783 31.2646C14.1048 31.2333 13.1749 30.8648 12.4602 30.2271L3.21211 21.9758C3.01915 21.8037 2.90762 21.5694 2.89805 21.3161C2.88848 21.0629 2.98208 20.8215 3.16158 20.6363C3.51425 20.2724 4.1032 20.2351 4.50226 20.5513L11.777 26.3182C12.5507 26.9315 13.5284 27.2775 14.5299 27.2925L22.7454 27.4154C22.7605 27.4156 22.7755 27.4158 22.7906 27.4158C24.2883 27.4156 25.5629 26.3007 25.7024 24.8592C25.7773 24.0834 25.5119 23.3048 24.9741 22.7231C24.4362 22.1414 23.6641 21.7978 22.8558 21.7804L15.7047 21.6273C15.3819 21.6204 15.1137 21.3716 15.0944 21.061C15.0805 20.8371 15.1924 20.6854 15.2603 20.6149C15.3282 20.5444 15.4768 20.4255 15.7095 20.4222L27.1328 20.2622C27.1912 20.2614 27.2493 20.2616 27.3071 20.2623C28.9736 20.2864 30.5776 21.1034 31.5976 22.4478L37.2652 29.9177C37.6617 30.4403 38.423 30.5544 38.9654 30.1721C39.5078 29.7898 39.626 29.0563 39.2293 28.5335ZM15.674 18.0775C14.843 18.0891 14.0421 18.4326 13.4767 19.0196C13.3955 19.1039 13.3206 19.1929 13.2507 19.2852C12.1359 18.5827 11.1814 17.6604 10.4506 16.5711C9.45523 15.0873 8.92915 13.3643 8.92915 11.5883C8.92915 6.5196 13.2082 2.39593 18.4678 2.39593C23.7275 2.39593 28.0065 6.5196 28.0065 11.5883C28.0065 13.9854 27.0702 16.2245 25.3605 17.9419L19.2787 18.0271V17.6013C20.8589 17.2462 22.0399 15.8786 22.0399 14.2492C22.0399 12.6197 20.8589 11.252 19.2787 10.897V7.21865C19.9501 7.51591 20.4177 8.1697 20.4177 8.92705C20.4177 9.35869 20.7809 9.70872 21.2288 9.70872C21.6768 9.70872 22.0399 9.35869 22.0399 8.92705C22.0399 7.29767 20.8589 5.93 19.2787 5.57496V5.03311C19.2787 4.60148 18.9155 4.25145 18.4676 4.25145C18.0196 4.25145 17.6565 4.60148 17.6565 5.03311V5.57496C16.0763 5.93 14.8952 7.29767 14.8952 8.92705C14.8952 10.5564 16.0763 11.924 17.6565 12.2791V15.9576C16.985 15.6604 16.5174 15.0066 16.5174 14.2492C16.5174 13.8175 16.1543 13.4675 15.7063 13.4675C15.2583 13.4675 14.8952 13.8175 14.8952 14.2492C14.8952 15.8786 16.0763 17.2462 17.6565 17.6013V18.0498L15.674 18.0775ZM17.6565 10.6354C16.985 10.3382 16.5174 9.68441 16.5174 8.92698C16.5174 8.16962 16.985 7.51584 17.6565 7.21857V10.6354ZM19.2787 12.5406C19.9501 12.8379 20.4177 13.4917 20.4177 14.2491C20.4177 15.0065 19.9501 15.6603 19.2787 15.9575V12.5406Z" fill="#CFDB00"/>
</svg>
