<svg width="39" height="34" viewBox="0 0 39 34" fill="none" xmlns="http://www.w3.org/2000/svg">
<path d="M0.0510258 13.6546C-0.092274 13.4404 0.0828703 13.1708 0.36947 13.1708H1.86616V10.6343C1.86616 7.80746 4.5172 5.50593 7.7733 5.50593H11.3717V7.6485H7.7733C5.87855 7.6485 4.34206 8.98242 4.34206 10.6274V13.1639H5.83875C6.12535 13.1639 6.30049 13.4334 6.15719 13.6477L3.42653 17.7601C3.28323 17.9743 2.92498 17.9743 2.78168 17.7601L0.0510258 13.6546ZM33.3046 8.04937C34.0449 8.04937 34.642 7.531 34.642 6.88823C34.642 6.24546 34.0449 5.7271 33.3046 5.7271C32.5642 5.7271 31.9671 6.24546 31.9671 6.88823C31.9671 7.531 32.5642 8.04937 33.3046 8.04937ZM19.2612 8.04937C20.0016 8.04937 20.5986 7.531 20.5986 6.88823C20.5986 6.24546 20.0016 5.7271 19.2612 5.7271C18.5208 5.7271 17.9237 6.24546 17.9237 6.88823C17.9237 7.531 18.5287 8.04937 19.2612 8.04937ZM13.569 11.8092V1.96723C13.569 0.909763 14.5562 0.0527344 15.7742 0.0527344H36.7915C38.0096 0.0527344 38.9967 0.909763 38.9967 1.96723V11.8092C38.9967 12.8667 38.0096 13.7237 36.7915 13.7237H15.7742C14.5562 13.7237 13.569 12.8667 13.569 11.8092ZM15.4558 9.82563C15.5831 9.80489 15.7105 9.79798 15.8459 9.79798C17.0798 9.79798 18.075 10.6619 18.075 11.7332C18.075 11.8576 18.059 11.9751 18.0352 12.0926H34.3554C34.3475 12.0166 34.3395 11.9336 34.3395 11.8507C34.3395 10.7794 35.3346 9.91548 36.5686 9.91548C36.7597 9.91548 36.9428 9.93621 37.1179 9.97768V4.03377C36.9428 4.07524 36.7597 4.09598 36.5686 4.09598C35.3346 4.09598 34.3395 3.23204 34.3395 2.16075C34.3395 1.99487 34.3634 1.84282 34.4111 1.69077H18.0352C18.059 1.80826 18.075 1.92576 18.075 2.05017C18.075 3.12145 17.0798 3.98539 15.8459 3.98539C15.7105 3.98539 15.5831 3.97157 15.4558 3.95775V9.82563ZM21.4584 6.88823C21.4584 4.57287 23.6159 2.69985 26.2829 2.69985C28.9498 2.69985 31.1073 4.57287 31.1073 6.88823C31.1073 9.20359 28.9498 11.0766 26.2829 11.0766C23.6159 11.0766 21.4584 9.20359 21.4584 6.88823ZM24.3802 7.93187C24.404 8.34656 24.5553 8.6714 24.8419 8.89257C25.1524 9.13448 25.5425 9.27962 26.0042 9.328V9.8671C26.0042 9.94313 26.0759 9.99842 26.1555 9.99842H26.7048C26.7924 9.99842 26.8561 9.93621 26.8561 9.8671V9.31418C27.2302 9.25197 27.5328 9.12757 27.7636 8.92713C28.0423 8.69905 28.1776 8.38803 28.1776 8.0079C28.1776 7.60703 28.0423 7.30292 27.7636 7.08867C27.4929 6.87441 27.063 6.66015 26.4739 6.43898C26.2192 6.34222 26.052 6.24546 25.9565 6.15561C25.8609 6.05885 25.8211 5.94135 25.8211 5.7893C25.8211 5.64416 25.8609 5.51975 25.9485 5.42299C26.0361 5.32623 26.1634 5.27785 26.3465 5.27785C26.5217 5.27785 26.665 5.33314 26.7685 5.45063C26.8561 5.5474 26.9038 5.67871 26.9197 5.84459C26.9277 5.92062 27.0073 5.97591 27.0949 5.97591L28.0025 5.96209C28.098 5.96209 28.1856 5.88606 28.1776 5.80312C28.1537 5.45755 28.0263 5.17417 27.7955 4.93918C27.5566 4.69728 27.2382 4.54523 26.8481 4.47611V3.88172C26.8481 3.80569 26.7764 3.7504 26.6968 3.7504H26.1475C26.06 3.7504 25.9963 3.8126 25.9963 3.88172V4.45538C25.5743 4.51067 25.24 4.64199 24.9772 4.85624C24.6906 5.09815 24.5473 5.40225 24.5473 5.76856C24.5473 6.17634 24.6827 6.48736 24.9534 6.69471C25.224 6.90205 25.6539 7.11631 26.251 7.31675C26.4978 7.4066 26.665 7.50336 26.7605 7.60012C26.8561 7.69688 26.9038 7.8282 26.9038 8.00099C26.9038 8.14613 26.8561 8.27054 26.7605 8.36039C26.665 8.45024 26.5297 8.49862 26.3465 8.49862C26.1316 8.49862 25.9565 8.43641 25.8211 8.31892C25.7097 8.22216 25.646 8.0701 25.6221 7.86967C25.6141 7.79364 25.5345 7.73144 25.4469 7.73144L24.5473 7.74526C24.4598 7.77982 24.3722 7.84893 24.3802 7.93187ZM31.2267 25.8465H27.6283V27.9891H31.2267C34.4828 27.9891 37.1338 25.6876 37.1338 22.8608V20.3242H38.6305C38.9171 20.3242 39.0923 20.0547 38.949 19.8404L36.2183 15.735C36.075 15.5207 35.7168 15.5207 35.5735 15.735L32.8428 19.8473C32.6995 20.0616 32.8747 20.3311 33.1613 20.3311H34.6579V22.8677C34.6579 24.5126 33.1214 25.8465 31.2267 25.8465ZM19.7388 27.7749C20.4792 27.7749 21.0763 27.2565 21.0763 26.6137C21.0763 25.9709 20.4792 25.4526 19.7388 25.4526C18.9985 25.4526 18.4014 25.9709 18.4014 26.6137C18.4014 27.2565 18.9985 27.7749 19.7388 27.7749ZM5.69545 27.7749C6.43583 27.7749 7.03291 27.2565 7.03291 26.6137C7.03291 25.9709 6.43583 25.4526 5.69545 25.4526C4.95507 25.4526 4.35798 25.9709 4.35798 26.6137C4.35798 27.2565 4.95507 27.7749 5.69545 27.7749ZM0.00325923 31.5347V21.6927C0.00325923 20.6353 0.990436 19.7782 2.20848 19.7782H23.2258C24.4438 19.7782 25.431 20.6353 25.431 21.6927V31.5347C25.431 32.5922 24.4438 33.4492 23.2258 33.4492H2.20848C0.990436 33.4492 0.00325923 32.5922 0.00325923 31.5347ZM1.88208 29.5511C2.00946 29.5304 2.13683 29.5235 2.27217 29.5235C3.50614 29.5235 4.50128 30.3874 4.50128 31.4587C4.50128 31.5831 4.48536 31.7006 4.46148 31.8181H20.7817C20.7738 31.7421 20.7658 31.6591 20.7658 31.5762C20.7658 30.5049 21.761 29.641 22.9949 29.641C23.186 29.641 23.3691 29.6617 23.5442 29.7032V23.7662C23.3691 23.8076 23.186 23.8284 22.9949 23.8284C21.761 23.8284 20.7658 22.9644 20.7658 21.8932C20.7658 21.7273 20.7897 21.5752 20.8375 21.4232H4.46944C4.49332 21.5407 4.50924 21.6582 4.50924 21.7826C4.50924 22.8539 3.51411 23.7178 2.28013 23.7178C2.1448 23.7178 2.01742 23.704 1.89004 23.6901V29.5511H1.88208ZM7.88475 26.6137C7.88475 24.2984 10.0422 22.4253 12.7092 22.4253C15.3762 22.4253 17.5336 24.2984 17.5336 26.6137C17.5336 28.9291 15.3762 30.8021 12.7092 30.8021C10.0502 30.8021 7.88475 28.9291 7.88475 26.6137ZM10.8065 27.6643C10.8304 28.079 10.9816 28.4038 11.2682 28.625C11.5787 28.8669 11.9688 29.012 12.4305 29.0604V29.5995C12.4305 29.6755 12.5022 29.7308 12.5818 29.7308H13.1311C13.2187 29.7308 13.2824 29.6686 13.2824 29.5995V29.0466C13.6566 28.9844 13.9591 28.86 14.1899 28.6595C14.4686 28.4315 14.6039 28.1204 14.6039 27.7403C14.6039 27.3394 14.4686 27.0353 14.1899 26.8211C13.9193 26.6068 13.4894 26.3926 12.9002 26.1714C12.6455 26.0746 12.4783 25.9779 12.3828 25.888C12.2872 25.7913 12.2474 25.6738 12.2474 25.5217C12.2474 25.3766 12.2872 25.2522 12.3748 25.1554C12.4624 25.0586 12.5898 25.0103 12.7729 25.0103C12.948 25.0103 13.0913 25.0655 13.1948 25.183C13.2824 25.2798 13.3301 25.4111 13.3461 25.577C13.354 25.653 13.4336 25.7083 13.5212 25.7083L14.4288 25.6945C14.5243 25.6945 14.6119 25.6185 14.6039 25.5355C14.58 25.1899 14.4527 24.9066 14.2218 24.6716C13.983 24.4297 13.6645 24.2776 13.2744 24.2085V23.6141C13.2744 23.5381 13.2028 23.4828 13.1232 23.4828H12.5738C12.4863 23.4828 12.4226 23.545 12.4226 23.6141V24.1878C12.0006 24.2431 11.6663 24.3744 11.4036 24.5886C11.117 24.8305 10.9737 25.1347 10.9737 25.501C10.9737 25.9087 11.109 26.2198 11.3797 26.4271C11.6504 26.6345 12.0803 26.8487 12.6773 27.0491C12.9241 27.139 13.0913 27.2358 13.1868 27.3325C13.2824 27.4293 13.3301 27.5606 13.3301 27.7334C13.3301 27.8785 13.2824 28.0029 13.1868 28.0928C13.0913 28.1826 12.956 28.231 12.7729 28.231C12.5579 28.231 12.3828 28.1688 12.2474 28.0513C12.136 27.9546 12.0723 27.8025 12.0484 27.6021C12.0404 27.526 11.9608 27.4638 11.8733 27.4638L10.9737 27.4777C10.8861 27.5053 10.8065 27.5744 10.8065 27.6643Z" fill="#CFDB00"/>
</svg>
