<svg width="34" height="34" viewBox="0 0 34 34" fill="none" xmlns="http://www.w3.org/2000/svg">
<path d="M33.5987 17.1037C33.5987 10.3849 28.4876 4.52528 21.1599 2.85402C20.4591 2.69163 19.7431 3.07054 19.5679 3.69303C19.3851 4.31553 19.8116 4.95156 20.5124 5.10718C26.6747 6.50779 30.9784 11.4472 30.9784 17.1037C30.9784 22.0905 27.6345 26.5088 22.63 28.4508L23.8411 25.9472C24.1229 25.3586 23.8183 24.6752 23.1556 24.4181C22.4929 24.1677 21.7235 24.4384 21.4341 25.027L19.0728 29.9123C18.7909 30.5009 19.0956 31.1843 19.7583 31.4414L25.2579 33.539C26.0806 33.7961 26.7661 33.3698 26.9794 32.93C27.2612 32.3414 26.9565 31.658 26.2938 31.4008L23.902 30.4874C29.7292 28.1463 33.5987 22.9498 33.5987 17.1037Z" fill="#CFDB00"/>
<path d="M13.5502 29.0996C7.38788 27.6922 3.08417 22.7596 3.08417 17.1029C3.08417 12.1838 6.33671 7.81954 11.2269 5.83701L10.092 8.17815C9.81014 8.76682 10.0996 9.47728 10.7775 9.70734C11.5697 9.97122 12.24 9.65321 12.499 9.09837L14.8603 4.20633C15.0888 3.73269 15.0812 3.02222 14.1748 2.67714L8.67518 0.579587C8.01249 0.329233 7.24315 0.599886 6.9537 1.18855C6.67186 1.77722 6.97655 2.46062 7.63925 2.71774L10.1986 3.69209C4.34862 6.04 0.463867 11.2433 0.463867 17.1029C0.463867 23.8219 5.58261 29.6747 12.9027 31.3528C13.7863 31.5558 14.3424 31.0415 14.4947 30.5137C14.6699 29.8912 14.2509 29.262 13.5502 29.0996Z" fill="#CFDB00"/>
<path d="M20.1161 21.4866C20.7864 20.8641 21.1215 20.0792 21.1215 19.1454C21.1215 18.7192 21.0377 18.3267 20.8778 17.9613C20.7178 17.5959 20.4893 17.2847 20.1922 17.014C19.8952 16.7501 19.5067 16.5268 19.0344 16.3374C18.7831 16.2426 18.2803 16.1073 17.511 15.9382V12.0542C18.0061 12.1422 18.3946 12.3317 18.684 12.6158C18.9659 12.9 19.1563 13.306 19.2477 13.8338L20.8168 13.624C20.6797 12.7715 20.2836 12.0948 19.6209 11.6076C19.103 11.222 18.4022 10.9919 17.5186 10.9175V10.2747H16.6198V10.9175C15.6143 11.0054 14.8526 11.2558 14.3423 11.655C13.5729 12.2505 13.1921 13.0286 13.1921 13.9894C13.1921 14.5307 13.3216 15.0112 13.5882 15.4374C13.8472 15.8637 14.2204 16.1953 14.7079 16.4321C15.363 16.7569 16.0028 16.9734 16.6274 17.0749V21.3716C16.0333 21.3175 15.5153 21.0468 15.0888 20.5664C14.7917 20.2281 14.5784 19.6935 14.4641 18.9695L12.9331 19.2266C12.9864 19.9236 13.1921 20.519 13.5349 21.0062C13.8776 21.4934 14.289 21.8452 14.7688 22.0618C15.2411 22.2783 15.8657 22.4272 16.6198 22.5151V23.8616H17.5186V22.4948C18.585 22.4475 19.4534 22.1091 20.1161 21.4866ZM16.6274 15.769C15.9343 15.5863 15.4468 15.3359 15.1573 15.0247C14.8679 14.7134 14.7231 14.3277 14.7231 13.8676C14.7231 13.4007 14.8907 13.0015 15.2335 12.6632C15.5762 12.3249 16.0409 12.1151 16.6274 12.0339V15.769ZM18.9811 20.6814C18.5926 21.0739 18.1051 21.2972 17.5186 21.3648V17.2576C18.3337 17.4944 18.8821 17.7583 19.1563 18.056C19.4305 18.3538 19.5676 18.7462 19.5676 19.2402C19.56 19.8086 19.3696 20.2957 18.9811 20.6814Z" fill="#CFDB00"/>
</svg>
