<svg width="40" height="30" viewBox="0 0 40 30" fill="none" xmlns="http://www.w3.org/2000/svg">
<path d="M35.3903 0.25H9.5679C7.1365 0.25 5.15889 2.34878 5.15889 4.92881V5.33891C2.75053 5.36802 0.799316 7.453 0.799316 10.0149V24.5712C0.799316 27.1512 2.77729 29.25 5.20832 29.25H31.0307C33.4618 29.25 35.4397 27.1512 35.4397 24.5712V24.1611C37.8475 24.1326 39.7993 22.0476 39.7993 19.4851V4.92903C39.7999 2.349 37.8213 0.25 35.3903 0.25ZM32.6125 24.5712C32.6125 25.3291 31.8885 25.9688 31.0313 25.9688H5.20888C4.35165 25.9688 3.62765 25.3291 3.62765 24.5712V10.0151C3.62765 9.25768 4.35202 8.61752 5.20888 8.61752H31.0313C31.8885 8.61752 32.6125 9.2579 32.6125 10.0151V24.5712ZM35.4403 20.8782V10.0149C35.4403 7.43489 33.4623 5.3361 31.0313 5.3361H7.98667V4.92881C7.98667 4.17136 8.71104 3.5312 9.5679 3.5312H35.3903C36.2475 3.5312 36.9715 4.17158 36.9715 4.92881V19.4851H36.9721C36.9719 20.2277 36.275 20.8536 35.4403 20.8782Z" fill="#CFDB00"/>
<path d="M18.1705 16.0648C16.9805 15.9003 16.3764 15.7035 16.3764 15.0821C16.3764 14.1196 17.5772 14.0157 18.0938 14.0157C18.854 14.0157 19.6947 14.4422 19.9686 14.9665L20.0775 15.1759L21.8143 14.2436L21.7082 13.9926C21.097 12.5441 20.0134 12.1067 19.1768 11.9288V10.647H17.1453V11.9221C15.3563 12.2453 14.2954 13.4143 14.2954 15.0817C14.2954 17.8251 16.5133 18.1127 17.9795 18.3035C19.3123 18.4862 19.9335 18.8574 19.9335 19.4715C19.9335 20.6593 18.4876 20.7516 18.044 20.7516C17.0496 20.7516 16.0918 20.1802 15.8166 19.4217L15.7246 19.1696L13.8403 20.0959L13.9332 20.3479C14.4634 21.7882 15.5998 22.6966 17.1448 22.923V24.3048H19.1761V22.854C20.6588 22.6418 22.0873 21.5416 22.0873 19.4708C22.0878 16.6254 19.731 16.2884 18.1705 16.0648Z" fill="#CFDB00"/>
</svg>
