<svg width="39" height="40" viewBox="0 0 39 40" fill="none" xmlns="http://www.w3.org/2000/svg">
<g clip-path="url(#clip0_26:474)">
<path d="M6.81695 9.8987C6.85675 10.0515 7.05579 10.1079 7.16726 9.99524L7.87584 9.27927L10.1051 11.5317C10.2086 11.4111 10.3121 11.2904 10.4236 11.1697C10.7898 10.7756 11.1799 10.4136 11.586 10.0757L9.33282 7.79907L10.0414 7.08311C10.1529 6.97048 10.1051 6.76937 9.94586 6.72915L6.02078 5.66727C5.86951 5.62704 5.7262 5.77185 5.76601 5.92469L6.81695 9.8987Z" fill="#CFDB00"/>
<path d="M17.6129 4.03496H18.6161V7.22865C18.9107 7.20452 19.2052 7.18843 19.5078 7.18843C19.9059 7.18843 20.296 7.21256 20.6861 7.24474V4.02692H21.6893C21.8485 4.02692 21.952 3.84994 21.8724 3.71318L19.8342 0.149443C19.7546 0.0126856 19.5555 0.0126856 19.4759 0.149443L17.4298 3.72123C17.3502 3.85798 17.4537 4.03496 17.6129 4.03496Z" fill="#CFDB00"/>
<path d="M7.07183 19.7544C7.07183 19.3522 7.08776 18.958 7.12757 18.5638H3.94292V17.5502C3.94292 17.3893 3.76776 17.2847 3.63241 17.3652L0.105417 19.4246C-0.0299306 19.505 -0.0299306 19.7062 0.105417 19.7866L3.63241 21.846C3.76776 21.9265 3.94292 21.8219 3.94292 21.661V20.6474H7.10368C7.0798 20.3578 7.07183 20.0601 7.07183 19.7544Z" fill="#CFDB00"/>
<path d="M29.0859 11.7575L31.339 9.48093L32.0476 10.1969C32.1591 10.3095 32.3581 10.2613 32.3979 10.1004L33.4489 6.12635C33.4887 5.97351 33.3454 5.8287 33.1941 5.86893L29.261 6.93081C29.1098 6.97103 29.054 7.17214 29.1655 7.28477L29.8741 8.00073L27.6289 10.2613C28.1544 10.7198 28.64 11.2186 29.0859 11.7575Z" fill="#CFDB00"/>
<path d="M32.1826 29.6087C32.1428 29.4559 31.9437 29.3996 31.8323 29.5122L31.1237 30.2282L28.8944 27.9677C28.4406 28.4986 27.947 28.9893 27.4136 29.4318L29.6667 31.7084L28.9581 32.4243C28.8467 32.537 28.8944 32.7381 29.0537 32.7783L32.9867 33.8402C33.138 33.8804 33.2813 33.7356 33.2415 33.5827L32.1826 29.6087Z" fill="#CFDB00"/>
<path d="M9.91413 27.7501L7.661 30.0267L6.95241 29.3108C6.84095 29.1981 6.64191 29.2464 6.6021 29.4073L5.55117 33.3813C5.51136 33.5342 5.65467 33.679 5.80594 33.6387L9.73898 32.5769C9.89025 32.5366 9.94598 32.3355 9.83452 32.2229L9.12593 31.5069L11.3631 29.2464C10.8456 28.7879 10.36 28.2891 9.91413 27.7501Z" fill="#CFDB00"/>
<path d="M38.8942 19.7215L35.3672 17.6621C35.2319 17.5816 35.0567 17.6862 35.0567 17.8471V18.8607H31.896C31.9198 19.1584 31.9278 19.456 31.9278 19.7617C31.9278 20.1639 31.9039 20.5662 31.8721 20.9523H35.0567V21.9659C35.0567 22.1268 35.2319 22.2314 35.3672 22.1509L38.8942 20.0915C39.0296 20.003 39.0296 19.8019 38.8942 19.7215Z" fill="#CFDB00"/>
<path d="M21.387 35.4736H20.3838V32.2799C20.0893 32.3041 19.7947 32.3121 19.4921 32.3121C19.0941 32.3121 18.696 32.288 18.3138 32.2558V35.4736H17.3107C17.1514 35.4736 17.0479 35.6506 17.1275 35.7874L19.1657 39.3511C19.2453 39.4879 19.4444 39.4879 19.524 39.3511L21.5622 35.7874C21.6497 35.6506 21.5462 35.4736 21.387 35.4736Z" fill="#CFDB00"/>
<path d="M19.4997 9.19952C13.7514 9.19952 9.08594 13.9217 9.08594 19.754C9.08594 25.5863 13.7514 30.3084 19.4997 30.3084C25.248 30.3084 29.9135 25.5863 29.9135 19.754C29.9135 13.9217 25.248 9.19952 19.4997 9.19952ZM23.1302 25.1036C22.8197 25.2484 22.4933 25.3691 22.1589 25.4576C20.893 25.8115 19.6192 25.8276 18.3612 25.4093C16.8406 24.9105 15.8294 23.8567 15.2243 22.3765C15.1049 22.0949 15.0333 21.7893 14.9457 21.4916H13.7514C13.5524 21.4916 13.3932 21.3307 13.3932 21.1216V20.3171C13.3932 20.116 13.5524 19.9471 13.7514 19.9471H14.7387C14.7387 19.7218 14.7387 19.5046 14.7387 19.2794H13.7514C13.5524 19.2794 13.3932 19.1185 13.3932 18.9093V18.0968C13.3932 17.8957 13.5524 17.7268 13.7514 17.7268H15.0094L15.0492 17.598C15.3836 16.504 15.9727 15.5789 16.8644 14.8709C17.573 14.3159 18.401 14.0021 19.2848 13.8573C20.5427 13.6562 21.7529 13.8251 22.9312 14.2917C23.0108 14.3239 23.0825 14.3561 23.1541 14.3963C23.4407 14.5652 23.5124 14.7824 23.385 15.0881C23.2497 15.4099 23.1223 15.7317 22.979 16.0535C22.8516 16.327 22.6844 16.4155 22.3898 16.3511C21.9917 16.2626 21.6016 16.1339 21.2035 16.0535C20.3596 15.8765 19.5236 15.8685 18.7115 16.1983C18.0109 16.4798 17.581 17.0188 17.2864 17.7026C17.2864 17.7107 17.2864 17.7187 17.2864 17.7268H19.7306C19.9297 17.7268 20.0889 17.8876 20.0889 18.0968V18.9093C20.0889 19.1104 19.9297 19.2794 19.7306 19.2794H16.9361C16.9361 19.4966 16.9361 19.7138 16.9361 19.9471H19.7306C19.9297 19.9471 20.0889 20.1079 20.0889 20.3171V21.1296C20.0889 21.3307 19.9297 21.4996 19.7306 21.4996H17.1749C17.4854 22.3926 17.987 23.0844 18.9265 23.3821C19.6829 23.6234 20.4392 23.6073 21.2035 23.4464C21.6016 23.366 21.9838 23.2453 22.3818 23.1488C22.6923 23.0764 22.8595 23.1649 22.9869 23.4464C23.1302 23.7682 23.2656 24.098 23.4009 24.4198C23.5124 24.7255 23.4328 24.9588 23.1302 25.1036Z" fill="#CFDB00"/>
</g>
<defs>
<clipPath id="clip0_26:474">
<rect width="39" height="39.4062" fill="white" transform="translate(0 0.046875)"/>
</clipPath>
</defs>
</svg>
