<svg width="34" height="34" viewBox="0 0 34 34" fill="none" xmlns="http://www.w3.org/2000/svg">
<path d="M30.9844 27.5464V18.8929C30.9844 13.5453 26.9823 8.99411 21.4419 7.37757C22.6208 6.37498 23.3543 4.97892 23.3543 3.43638V1.22831C23.3543 0.409362 22.3594 -0.126023 21.5139 0.240864C18.685 1.46902 15.3073 1.46902 12.4778 0.240864C11.6312 -0.126684 10.6374 0.410883 10.6374 1.22831V3.43638C10.6374 4.97892 11.3708 6.37498 12.5498 7.37757C7.00932 8.99411 3.00725 13.5452 3.00725 18.8929V27.5464C1.52692 28.002 0.463867 29.2299 0.463867 30.6693C0.463791 32.4956 2.1753 33.9814 4.27894 33.9814H29.7127C31.8164 33.9814 33.5278 32.4956 33.5278 30.6693C33.5278 29.2299 32.4647 28.002 30.9844 27.5464ZM13.1808 2.86151C15.6573 3.53782 18.3344 3.53782 20.8109 2.86151V3.43644C20.8109 5.26275 19.0995 6.74855 16.9958 6.74855C14.8922 6.74855 13.1808 5.26275 13.1808 3.43644V2.86151ZM29.7127 31.7734H4.27894C3.5777 31.7734 3.00725 31.2781 3.00725 30.6693C3.00725 30.0606 3.5777 29.5653 4.27894 29.5653C4.98124 29.5653 5.55063 29.071 5.55063 28.4613V18.893C5.55063 13.4141 10.685 8.95668 16.9958 8.95668C23.3067 8.95668 28.441 13.4141 28.441 18.893V28.4613C28.441 29.071 29.0104 29.5653 29.7127 29.5653C30.414 29.5653 30.9844 30.0606 30.9844 30.6693C30.9844 31.2781 30.414 31.7734 29.7127 31.7734Z" fill="#CFDB00"/>
<path d="M17.5384 19.3891C16.2043 18.7769 14.8246 18.1437 14.8246 17.421C14.8246 16.4064 15.7754 15.581 16.9441 15.581C18.1128 15.581 19.0636 16.4064 19.0636 17.421C19.0636 18.0307 19.633 18.5251 20.3353 18.5251C21.0376 18.5251 21.607 18.0307 21.607 17.421C21.607 15.5717 20.1705 14.0092 18.2158 13.5272V13.0049C18.2158 12.3952 17.6464 11.9009 16.9441 11.9009C16.2418 11.9009 15.6724 12.3952 15.6724 13.0049V13.5272C13.7177 14.0091 12.2812 15.5717 12.2812 17.421C12.2812 19.4742 14.5372 20.5094 16.3499 21.3412C17.684 21.9535 19.0636 22.5866 19.0636 23.3092C19.0636 24.3238 18.1128 25.1492 16.9441 25.1492C15.7754 25.1492 14.8246 24.3238 14.8246 23.3092C14.8246 22.6995 14.2552 22.2052 13.5529 22.2052C12.8506 22.2052 12.2812 22.6995 12.2812 23.3092C12.2812 25.1586 13.7177 26.7211 15.6724 27.203V27.7253C15.6724 28.335 16.2418 28.8293 16.9441 28.8293C17.6464 28.8293 18.2158 28.335 18.2158 27.7253V27.203C20.1706 26.7211 21.607 25.1586 21.607 23.3092C21.607 21.2561 19.3511 20.221 17.5384 19.3891Z" fill="#CFDB00"/>
</svg>
