<svg width="39" height="30" viewBox="0 0 39 30" fill="none" xmlns="http://www.w3.org/2000/svg">
<path d="M12.5529 9.5364H14.9653C14.9653 7.5004 13.4945 5.7832 11.5033 5.27997V4.3252H9.09092V5.27997C7.09982 5.78327 5.62891 7.5004 5.62891 9.5364C5.62891 11.6193 6.78693 13.1117 8.88989 13.7387L9.091 13.7987V18.1902C8.46072 17.8122 8.04129 17.1478 8.04129 16.3923H5.62891C5.62891 18.4283 7.09982 20.1455 9.091 20.6487V21.6035H11.5034V20.6487C13.4946 20.1455 14.9654 18.4283 14.9654 16.3923C14.9654 14.3094 13.8074 12.817 11.7044 12.1899L11.5034 12.13V7.73843C12.1336 8.1165 12.5529 8.78087 12.5529 9.5364ZM8.04129 9.5364C8.04129 8.78087 8.46072 8.11643 9.091 7.73843V11.3653C8.36173 11.008 8.04129 10.4376 8.04129 9.5364ZM12.5529 16.3923C12.5529 17.1478 12.1336 17.8122 11.5033 18.1902V14.5633C12.2326 14.9207 12.5529 15.4911 12.5529 16.3923Z" fill="#CFDB00"/>
<path d="M39 0.25H0V25.6774H13.9536L12.8488 29.25L22.0836 26.7054L23.1726 25.6774H39V0.25ZM2.41237 23.4003V2.52708H36.5876V7.51723L32.9607 4.09371L15.5446 20.5332L14.6579 23.4003H2.41237ZM33.8321 12.3954L30.7047 9.44349L32.9607 7.31404L36.088 10.266L33.8321 12.3954ZM20.8145 24.6829L16.3979 25.9L17.6871 21.7311L28.999 11.0537L32.1263 14.0056L20.8145 24.6829ZM25.5849 23.4003L36.5876 13.0146V23.4003H25.5849Z" fill="#CFDB00"/>
</svg>
