<svg width="1811" height="703" viewBox="0 0 1811 703" fill="none" xmlns="http://www.w3.org/2000/svg">
<g opacity="0.1">
<circle cx="1472.65" cy="273.744" r="17.7661" fill="#CFDB00"/>
<circle cx="1554.87" cy="273.743" r="17.7661" fill="#CFDB00"/>
<circle cx="1637.09" cy="273.743" r="17.7661" fill="#CFDB00"/>
<circle cx="1719.31" cy="273.743" r="17.7661" fill="#CFDB00"/>
<circle cx="1801.53" cy="273.743" r="17.7661" fill="#CFDB00"/>
<circle cx="1472.65" cy="355.963" r="17.7661" fill="#CFDB00"/>
<circle cx="1554.87" cy="355.963" r="17.7661" fill="#CFDB00"/>
<circle cx="1637.09" cy="355.963" r="17.7661" fill="#CFDB00"/>
<circle cx="1719.31" cy="355.963" r="17.7661" fill="#CFDB00"/>
<circle cx="1801.53" cy="355.963" r="17.7661" fill="#CFDB00"/>
<circle cx="1472.65" cy="438.187" r="17.7661" fill="#CFDB00"/>
<circle cx="1554.87" cy="438.187" r="17.7661" fill="#CFDB00"/>
<circle cx="1637.09" cy="438.187" r="17.7661" fill="#CFDB00"/>
<circle cx="1719.31" cy="438.187" r="17.7661" fill="#CFDB00"/>
<circle cx="1801.53" cy="438.187" r="17.7661" fill="#CFDB00"/>
<circle cx="1472.65" cy="520.407" r="17.7661" fill="#CFDB00"/>
<circle cx="1554.87" cy="520.407" r="17.7661" fill="#CFDB00"/>
<circle cx="1637.09" cy="520.407" r="17.7661" fill="#CFDB00"/>
<circle cx="1719.31" cy="520.407" r="17.7661" fill="#CFDB00"/>
<circle cx="1801.53" cy="520.407" r="17.7661" fill="#CFDB00"/>
<circle cx="1472.65" cy="602.627" r="17.7661" fill="#CFDB00"/>
<circle cx="1554.87" cy="602.627" r="17.7661" fill="#CFDB00"/>
<circle cx="1637.09" cy="602.627" r="17.7661" fill="#CFDB00"/>
<circle cx="1719.31" cy="602.627" r="17.7661" fill="#CFDB00"/>
<circle cx="1801.53" cy="602.627" r="17.7661" fill="#CFDB00"/>
<circle cx="1472.65" cy="684.851" r="17.7661" fill="#CFDB00"/>
<circle cx="1554.87" cy="684.851" r="17.7661" fill="#CFDB00"/>
<circle cx="1637.09" cy="684.851" r="17.7661" fill="#CFDB00"/>
<circle cx="1719.31" cy="684.851" r="17.7661" fill="#CFDB00"/>
<circle cx="1801.53" cy="684.851" r="17.7661" fill="#CFDB00"/>
</g>
<g opacity="0.05">
<circle cx="9.34929" cy="9.32634" r="8.39811" fill="#002395"/>
<circle cx="48.2155" cy="9.32536" r="8.39811" fill="#002395"/>
<circle cx="87.0822" cy="9.32536" r="8.39811" fill="#002395"/>
<circle cx="125.949" cy="9.32536" r="8.39811" fill="#002395"/>
<circle cx="164.815" cy="9.32536" r="8.39811" fill="#002395"/>
<circle cx="203.682" cy="9.32536" r="8.39811" fill="#002395"/>
<circle cx="9.34929" cy="48.1914" r="8.39811" fill="#002395"/>
<circle cx="48.2155" cy="48.1914" r="8.39811" fill="#002395"/>
<circle cx="87.0822" cy="48.1914" r="8.39811" fill="#002395"/>
<circle cx="125.949" cy="48.1914" r="8.39811" fill="#002395"/>
<circle cx="164.815" cy="48.1914" r="8.39811" fill="#002395"/>
<circle cx="203.682" cy="48.1914" r="8.39811" fill="#002395"/>
<circle cx="9.34929" cy="87.0584" r="8.39811" fill="#002395"/>
<circle cx="48.2155" cy="87.0584" r="8.39811" fill="#002395"/>
<circle cx="87.0822" cy="87.0584" r="8.39811" fill="#002395"/>
<circle cx="125.949" cy="87.0584" r="8.39811" fill="#002395"/>
<circle cx="164.815" cy="87.0584" r="8.39811" fill="#002395"/>
<circle cx="203.682" cy="87.0584" r="8.39811" fill="#002395"/>
<circle cx="9.34929" cy="125.925" r="8.39811" fill="#002395"/>
<circle cx="48.2155" cy="125.925" r="8.39811" fill="#002395"/>
<circle cx="87.0822" cy="125.925" r="8.39811" fill="#002395"/>
<circle cx="125.949" cy="125.925" r="8.39811" fill="#002395"/>
<circle cx="164.815" cy="125.925" r="8.39811" fill="#002395"/>
<circle cx="203.682" cy="125.925" r="8.39811" fill="#002395"/>
<circle cx="9.34929" cy="164.791" r="8.39811" fill="#002395"/>
<circle cx="48.2155" cy="164.791" r="8.39811" fill="#002395"/>
<circle cx="87.0822" cy="164.791" r="8.39811" fill="#002395"/>
<circle cx="125.949" cy="164.791" r="8.39811" fill="#002395"/>
<circle cx="164.815" cy="164.791" r="8.39811" fill="#002395"/>
<circle cx="203.682" cy="164.791" r="8.39811" fill="#002395"/>
<circle cx="9.34929" cy="203.658" r="8.39811" fill="#002395"/>
<circle cx="48.2155" cy="203.658" r="8.39811" fill="#002395"/>
<circle cx="87.0822" cy="203.658" r="8.39811" fill="#002395"/>
<circle cx="125.949" cy="203.658" r="8.39811" fill="#002395"/>
<circle cx="164.815" cy="203.658" r="8.39811" fill="#002395"/>
<circle cx="203.682" cy="203.658" r="8.39811" fill="#002395"/>
</g>
</svg>
